<svg version="1.1" viewBox="0.0 0.0 866.0 539.0" fill="none" stroke="none" stroke-linecap="square" stroke-miterlimit="10" width="866" height="539" xmlns:xlink="http://www.w3.org/1999/xlink" xmlns="http://www.w3.org/2000/svg"><path fill="#ffffff" fill-opacity="0.0" d="M0 0L866.0 0L866.0 539.0L0 539.0L0 0Z" fill-rule="nonzero"/><path fill="#efefef" d="M433.0 26.95C492.88763 26.95 550.658 49.10577 595.1877 89.151276L473.5469 224.41283C462.41452 214.40144 447.97192 208.8625 433.0 208.8625Z" fill-rule="nonzero"/><path fill="#1155cc" d="M595.1877 89.151276C650.7905 139.15494 680.21967 212.011 674.9461 286.60477L493.48654 273.77618C494.8049 255.12775 487.44763 236.91373 473.5469 224.41283Z" fill-rule="nonzero"/><path fill="#ead1dc" d="M674.9461 286.60477C673.79736 302.85425 671.01447 318.94662 666.6397 334.6382L491.40994 285.78455C492.50363 281.86166 493.19934 277.83856 493.48654 273.77618Z" fill-rule="nonzero"/><path fill="#20124d" d="M666.6397 334.6382C659.1131 361.63495 646.96454 387.12296 630.73334 409.97076L482.43332 304.61768C486.49112 298.90573 489.52826 292.53372 491.40994 285.78455Z" fill-rule="nonzero"/><path fill="#c27ba0" d="M630.73334 409.97076C585.74005 473.30545 513.1306 511.25455 435.44495 512.03766L433.61124 330.13443C453.03265 329.93863 471.18503 320.45135 482.43332 304.61768Z" fill-rule="nonzero"/><path fill="#45818e" d="M423.2043 27.147886C426.46786 27.015976 429.73376 26.95 433.0 26.95L433.0 208.8625C432.18344 208.8625 431.36697 208.879 430.5511 208.91197Z" fill-rule="nonzero"/><path fill="#ff00ff" d="M420.01413 27.297874C421.07718 27.24088 422.1406 27.190882 423.2043 27.147886L430.5511 208.91197C430.28516 208.92271 430.0193 208.93523 429.75354 208.94946Z" fill-rule="nonzero"/><path fill="#0000ff" d="M355.021 39.826797C376.01108 32.70022 397.87903 28.484669 420.01413 27.297874L429.75354 208.94946C424.21976 209.24617 418.75278 210.30005 413.50525 212.0817Z" fill-rule="nonzero"/><path fill="#8e7cc3" d="M287.8282 75.19188C308.23026 59.94905 330.90564 48.01448 355.021 39.826797L413.50525 212.0817C407.4764 214.12862 401.80756 217.11226 396.70703 220.92297Z" fill-rule="nonzero"/><path fill="#073763" d="M212.1462 169.22987C229.0458 132.00699 255.07932 99.65927 287.8282 75.19188L396.70703 220.92297C388.51984 227.03981 382.01144 235.12674 377.78656 244.43246Z" fill-rule="nonzero"/><path fill="#cccccc" d="M435.44495 512.03766C352.56744 512.8731 275.00092 471.33203 229.76392 401.88428C184.52692 332.43652 177.8829 244.69778 212.1462 169.22987L377.78656 244.43246C369.22073 263.29944 370.8817 285.23413 382.19098 302.59607C393.50024 319.958 412.89185 330.3433 433.61124 330.13443Z" fill-rule="nonzero"/><path fill="#ffffff" d="M28.184376 41.95L28.184376 30.496876L32.5125 30.496876Q33.653126 30.496876 34.246876 30.60625Q35.090626 30.746876 35.653126 31.1375Q36.23125 31.528126 36.575 32.246876Q36.934376 32.95 36.934376 33.809376Q36.934376 35.2625 35.996876 36.278126Q35.075 37.29375 32.6375 37.29375L29.7 37.29375L29.7 41.95L28.184376 41.95ZM29.7 35.934376L32.66875 35.934376Q34.1375 35.934376 34.746876 35.3875Q35.371876 34.840626 35.371876 33.85625Q35.371876 33.1375 34.996876 32.621876Q34.6375 32.10625 34.04375 31.95Q33.66875 31.840626 32.6375 31.840626L29.7 31.840626L29.7 35.934376ZM44.45 41.95L44.45 40.73125Q43.48125 42.1375 41.809376 42.1375Q41.075 42.1375 40.434376 41.85625Q39.809376 41.575 39.496876 41.153126Q39.184376 40.715626 39.059376 40.10625Q38.98125 39.684376 38.98125 38.79375L38.98125 33.653126L40.3875 33.653126L40.3875 38.246876Q40.3875 39.35625 40.465626 39.73125Q40.60625 40.29375 41.028126 40.60625Q41.465626 40.91875 42.090626 40.91875Q42.73125 40.91875 43.278126 40.60625Q43.840626 40.278126 44.059376 39.715626Q44.29375 39.153126 44.29375 38.090626L44.29375 33.653126L45.7 33.653126L45.7 41.95L44.45 41.95ZM48.309376 41.95L46.996876 41.95L46.996876 30.496876L48.403126 30.496876L48.403126 34.575Q49.29375 33.465626 50.684376 33.465626Q51.45 33.465626 52.121876 33.778126Q52.809376 34.075 53.246876 34.6375Q53.7 35.2 53.95 35.996876Q54.2 36.778126 54.2 37.66875Q54.2 39.809376 53.1375 40.98125Q52.090626 42.1375 50.60625 42.1375Q49.1375 42.1375 48.309376 40.903126L48.309376 41.95ZM48.29375 37.73125Q48.29375 39.23125 48.7 39.8875Q49.35625 40.98125 50.496876 40.98125Q51.41875 40.98125 52.090626 40.184376Q52.7625 39.371876 52.7625 37.79375Q52.7625 36.16875 52.10625 35.403126Q51.465626 34.621876 50.559376 34.621876Q49.6375 34.621876 48.965626 35.41875Q48.29375 36.215626 48.29375 37.73125ZM55.98125 41.95L55.98125 30.496876L57.3875 30.496876L57.3875 41.95L55.98125 41.95ZM59.0125 32.10625L59.0125 30.496876L60.41875 30.496876L60.41875 32.10625L59.0125 32.10625ZM59.0125 41.95L59.0125 33.653126L60.41875 33.653126L60.41875 41.95L59.0125 41.95ZM68.41875 38.903126L69.80937 39.090626Q69.575 40.5125 68.6375 41.325Q67.71562 42.1375 66.35625 42.1375Q64.65312 42.1375 63.60625 41.028126Q62.575 39.903126 62.575 37.825Q62.575 36.48125 63.0125 35.48125Q63.465626 34.465626 64.37187 33.965626Q65.29375 33.465626 66.35625 33.465626Q67.71562 33.465626 68.575 34.153126Q69.43437 34.825 69.66875 36.090626L68.30937 36.29375Q68.10625 35.465626 67.60625 35.04375Q67.12187 34.621876 66.41875 34.621876Q65.35625 34.621876 64.68437 35.3875Q64.02812 36.1375 64.02812 37.79375Q64.02812 39.465626 64.66875 40.23125Q65.30937 40.98125 66.34062 40.98125Q67.16875 40.98125 67.71562 40.48125Q68.27812 39.965626 68.41875 38.903126ZM74.66875 38.2625L76.10625 38.1375Q76.2 38.996876 76.575 39.559376Q76.95 40.10625 77.73125 40.45Q78.5125 40.778126 79.48125 40.778126Q80.35625 40.778126 81.0125 40.528126Q81.68437 40.2625 81.99687 39.825Q82.325 39.371876 82.325 38.840626Q82.325 38.29375 82.0125 37.903126Q81.7 37.496876 80.98125 37.215626Q80.52812 37.04375 78.95 36.66875Q77.37187 36.278126 76.73125 35.95Q75.91875 35.5125 75.5125 34.8875Q75.10625 34.246876 75.10625 33.45Q75.10625 32.590626 75.59062 31.840626Q76.09062 31.075 77.02812 30.684376Q77.98125 30.29375 79.1375 30.29375Q80.41875 30.29375 81.3875 30.715626Q82.35625 31.121876 82.87187 31.91875Q83.40312 32.715626 83.45 33.715626L81.99687 33.825Q81.87187 32.746876 81.2 32.2Q80.52812 31.6375 79.2 31.6375Q77.825 31.6375 77.2 32.1375Q76.575 32.6375 76.575 33.35625Q76.575 33.965626 77.0125 34.371876Q77.45 34.7625 79.29375 35.184376Q81.15312 35.60625 81.84062 35.91875Q82.84062 36.371876 83.30937 37.090626Q83.79375 37.79375 83.79375 38.715626Q83.79375 39.621876 83.2625 40.434376Q82.74687 41.246876 81.7625 41.7Q80.77812 42.153126 79.55937 42.153126Q77.99687 42.153126 76.95 41.7Q75.90312 41.23125 75.29375 40.325Q74.7 39.41875 74.66875 38.2625ZM91.41875 40.91875Q90.6375 41.590626 89.91875 41.871876Q89.2 42.1375 88.37187 42.1375Q86.99687 42.1375 86.2625 41.465626Q85.52812 40.79375 85.52812 39.7625Q85.52812 39.153126 85.80937 38.653126Q86.09062 38.1375 86.52812 37.840626Q86.98125 37.528126 87.54375 37.371876Q87.96562 37.2625 88.79375 37.16875Q90.49687 36.965626 91.30937 36.684376Q91.30937 36.3875 91.30937 36.309376Q91.30937 35.45 90.91875 35.10625Q90.37187 34.621876 89.30937 34.621876Q88.325 34.621876 87.84062 34.98125Q87.37187 35.325 87.15312 36.2L85.77812 36.0125Q85.96562 35.1375 86.3875 34.590626Q86.825 34.04375 87.6375 33.7625Q88.45 33.465626 89.5125 33.465626Q90.575 33.465626 91.23125 33.715626Q91.90312 33.965626 92.21562 34.340626Q92.52812 34.715626 92.65312 35.29375Q92.73125 35.653126 92.73125 36.590626L92.73125 38.465626Q92.73125 40.434376 92.80937 40.95Q92.90312 41.465626 93.16875 41.95L91.7 41.95Q91.48125 41.5125 91.41875 40.91875ZM91.30937 37.778126Q90.54375 38.090626 89.0125 38.309376Q88.1375 38.434376 87.77812 38.590626Q87.41875 38.746876 87.21562 39.059376Q87.02812 39.35625 87.02812 39.715626Q87.02812 40.278126 87.45 40.653126Q87.8875 41.028126 88.7 41.028126Q89.5125 41.028126 90.1375 40.684376Q90.77812 40.325 91.075 39.7Q91.30937 39.23125 91.30937 38.29375L91.30937 37.778126ZM94.98125 41.95L94.98125 30.496876L96.3875 30.496876L96.3875 41.95L94.98125 41.95ZM103.68437 39.278126L105.1375 39.45Q104.79375 40.73125 103.85625 41.434376Q102.93437 42.1375 101.49687 42.1375Q99.66875 42.1375 98.60625 41.0125Q97.54375 39.8875 97.54375 37.871876Q97.54375 35.778126 98.62187 34.621876Q99.7 33.465626 101.41875 33.465626Q103.075 33.465626 104.12187 34.60625Q105.18437 35.73125 105.18437 37.778126Q105.18437 37.903126 105.18437 38.153126L98.99687 38.153126Q99.075 39.528126 99.7625 40.2625Q100.46562 40.98125 101.49687 40.98125Q102.27812 40.98125 102.825 40.575Q103.37187 40.16875 103.68437 39.278126ZM99.075 36.996876L103.7 36.996876Q103.60625 35.95 103.16875 35.434376Q102.49687 34.621876 101.43437 34.621876Q100.46562 34.621876 99.79375 35.278126Q99.1375 35.91875 99.075 36.996876Z" fill-rule="nonzero"/><path fill="#9e9e9e" d="M32.121876 63.95L32.121876 61.2L27.153126 61.2L27.153126 59.91875L32.3875 52.496876L33.528126 52.496876L33.528126 59.91875L35.075 59.91875L35.075 61.2L33.528126 61.2L33.528126 63.95L32.121876 63.95ZM32.121876 59.91875L32.121876 54.746876L28.54375 59.91875L32.121876 59.91875ZM37.403126 63.95L37.403126 62.340626L39.0125 62.340626L39.0125 63.95L37.403126 63.95ZM45.121876 63.95L45.121876 61.2L40.153126 61.2L40.153126 59.91875L45.3875 52.496876L46.528126 52.496876L46.528126 59.91875L48.075 59.91875L48.075 61.2L46.528126 61.2L46.528126 63.95L45.121876 63.95ZM45.121876 59.91875L45.121876 54.746876L41.54375 59.91875L45.121876 59.91875ZM49.8875 55.246876Q49.8875 54.0125 50.496876 53.153126Q51.121876 52.29375 52.29375 52.29375Q53.371876 52.29375 54.075 53.075Q54.778126 53.840626 54.778126 55.325Q54.778126 56.778126 54.059376 57.575Q53.35625 58.35625 52.309376 58.35625Q51.2625 58.35625 50.575 57.590626Q49.8875 56.809376 49.8875 55.246876ZM52.325 53.2625Q51.809376 53.2625 51.45 53.715626Q51.10625 54.16875 51.10625 55.3875Q51.10625 56.48125 51.45 56.934376Q51.809376 57.3875 52.325 57.3875Q52.85625 57.3875 53.2 56.934376Q53.559376 56.48125 53.559376 55.278126Q53.559376 54.16875 53.2 53.715626Q52.85625 53.2625 52.325 53.2625ZM52.340626 64.37187L58.60625 52.29375L59.746876 52.29375L53.496876 64.37187L52.340626 64.37187ZM57.29375 61.2625Q57.29375 60.028126 57.903126 59.16875Q58.528126 58.309376 59.7 58.309376Q60.778126 58.309376 61.48125 59.090626Q62.2 59.85625 62.2 61.340626Q62.2 62.79375 61.48125 63.590626Q60.7625 64.37187 59.715626 64.37187Q58.66875 64.37187 57.98125 63.590626Q57.29375 62.809376 57.29375 61.2625ZM59.746876 59.278126Q59.215626 59.278126 58.85625 59.73125Q58.5125 60.184376 58.5125 61.403126Q58.5125 62.496876 58.85625 62.95Q59.215626 63.403126 59.73125 63.403126Q60.278126 63.403126 60.621876 62.95Q60.965626 62.496876 60.965626 61.29375Q60.965626 60.184376 60.60625 59.73125Q60.2625 59.278126 59.746876 59.278126Z" fill-rule="nonzero"/><path stroke="#757575" stroke-width="1.0" stroke-linecap="butt" d="M26.95 47.45L184.45 47.45L389.38376 43.24317" fill-rule="nonzero"/><path fill="#9e9e9e" d="M391.38376 43.24317C391.38376 42.1386 390.48834 41.24317 389.38376 41.24317C388.2792 41.24317 387.38376 42.1386 387.38376 43.24317C387.38376 44.34774 388.2792 45.24317 389.38376 45.24317C390.48834 45.24317 391.38376 44.34774 391.38376 43.24317" fill-rule="nonzero"/><path fill="#ffffff" d="M28.121876 82.95L28.121876 71.49687L29.6375 71.49687L29.6375 81.59062L35.278126 81.59062L35.278126 82.95L28.121876 82.95ZM37.0125 73.10625L37.0125 71.49687L38.41875 71.49687L38.41875 73.10625L37.0125 73.10625ZM37.0125 82.95L37.0125 74.65312L38.41875 74.65312L38.41875 82.95L37.0125 82.95ZM46.29375 86.1375L46.29375 82.05937Q45.965626 82.52812 45.371876 82.84062Q44.79375 83.1375 44.121876 83.1375Q42.653126 83.1375 41.575 81.96562Q40.5125 80.77812 40.5125 78.71562Q40.5125 77.46562 40.95 76.48125Q41.3875 75.48125 42.2 74.98125Q43.028126 74.46562 44.0125 74.46562Q45.559376 74.46562 46.434376 75.7625L46.434376 74.65312L47.7 74.65312L47.7 86.1375L46.29375 86.1375ZM41.965626 78.77812Q41.965626 80.37187 42.6375 81.18437Q43.309376 81.98125 44.246876 81.98125Q45.1375 81.98125 45.778126 81.21562Q46.434376 80.45 46.434376 78.90312Q46.434376 77.24687 45.746876 76.41875Q45.075 75.575 44.153126 75.575Q43.23125 75.575 42.590626 76.35625Q41.965626 77.12187 41.965626 78.77812ZM55.45 82.95L55.45 81.73125Q54.48125 83.1375 52.809376 83.1375Q52.075 83.1375 51.434376 82.85625Q50.809376 82.575 50.496876 82.15312Q50.184376 81.71562 50.059376 81.10625Q49.98125 80.68437 49.98125 79.79375L49.98125 74.65312L51.3875 74.65312L51.3875 79.24687Q51.3875 80.35625 51.465626 80.73125Q51.60625 81.29375 52.028126 81.60625Q52.465626 81.91875 53.090626 81.91875Q53.73125 81.91875 54.278126 81.60625Q54.840626 81.27812 55.059376 80.71562Q55.29375 80.15312 55.29375 79.09062L55.29375 74.65312L56.7 74.65312L56.7 82.95L55.45 82.95ZM58.0125 73.10625L58.0125 71.49687L59.41875 71.49687L59.41875 73.10625L58.0125 73.10625ZM58.0125 82.95L58.0125 74.65312L59.41875 74.65312L59.41875 82.95L58.0125 82.95ZM67.3875 82.95L67.3875 81.90312Q66.60625 83.1375 65.075 83.1375Q64.075 83.1375 63.246876 82.59062Q62.41875 82.04375 61.95 81.05937Q61.496876 80.075 61.496876 78.80937Q61.496876 77.55937 61.903126 76.55937Q62.325 75.54375 63.153126 75.0125Q63.98125 74.46562 65.0125 74.46562Q65.7625 74.46562 66.34062 74.77812Q66.93437 75.09062 67.29375 75.60625L67.29375 71.49687L68.7 71.49687L68.7 82.95L67.3875 82.95ZM62.95 78.80937Q62.95 80.40312 63.621876 81.2Q64.29375 81.98125 65.2 81.98125Q66.12187 81.98125 66.7625 81.23125Q67.41875 80.46562 67.41875 78.91875Q67.41875 77.21562 66.7625 76.41875Q66.10625 75.62187 65.1375 75.62187Q64.2 75.62187 63.575 76.3875Q62.95 77.15312 62.95 78.80937ZM71.0125 73.10625L71.0125 71.49687L72.41875 71.49687L72.41875 73.10625L71.0125 73.10625ZM71.0125 82.95L71.0125 74.65312L72.41875 74.65312L72.41875 82.95L71.0125 82.95ZM78.075 81.68437L78.27812 82.93437Q77.68437 83.05937 77.21562 83.05937Q76.45 83.05937 76.02812 82.825Q75.60625 82.575 75.43437 82.18437Q75.2625 81.77812 75.2625 80.5125L75.2625 75.74687L74.23125 75.74687L74.23125 74.65312L75.2625 74.65312L75.2625 72.59062L76.66875 71.74687L76.66875 74.65312L78.075 74.65312L78.075 75.74687L76.66875 75.74687L76.66875 80.59062Q76.66875 81.2 76.73125 81.37187Q76.80937 81.54375 76.98125 81.65312Q77.15312 81.74687 77.46562 81.74687Q77.7 81.74687 78.075 81.68437ZM78.95 86.15312L78.79375 84.825Q79.24687 84.95 79.59062 84.95Q80.05937 84.95 80.34062 84.79375Q80.62187 84.6375 80.80937 84.35625Q80.93437 84.15312 81.23125 83.30937Q81.27812 83.2 81.35625 82.96562L78.21562 74.65312L79.73125 74.65312L81.45 79.45Q81.79375 80.37187 82.05937 81.37187Q82.29375 80.40312 82.6375 79.48125L84.40312 74.65312L85.80937 74.65312L82.65312 83.09062Q82.15312 84.46562 81.87187 84.98125Q81.49687 85.66875 81.0125 85.99687Q80.52812 86.325 79.85625 86.325Q79.45 86.325 78.95 86.15312Z" fill-rule="nonzero"/><path fill="#9e9e9e" d="M27.621876 101.95L29.090626 101.825Q29.2625 102.90312 29.85625 103.45Q30.45 103.98125 31.29375 103.98125Q32.309376 103.98125 33.0125 103.21562Q33.715626 102.45 33.715626 101.18437Q33.715626 99.98125 33.04375 99.29375Q32.371876 98.59062 31.278126 98.59062Q30.590626 98.59062 30.04375 98.90312Q29.496876 99.21562 29.184376 99.7L27.871876 99.52812L28.98125 93.65312L34.66875 93.65312L34.66875 94.99687L30.10625 94.99687L29.48125 98.075Q30.5125 97.35625 31.653126 97.35625Q33.153126 97.35625 34.184376 98.40312Q35.215626 99.43437 35.215626 101.05937Q35.215626 102.62187 34.309376 103.74687Q33.2 105.15312 31.29375 105.15312Q29.73125 105.15312 28.746876 104.27812Q27.7625 103.3875 27.621876 101.95ZM37.403126 104.95L37.403126 103.34062L39.0125 103.34062L39.0125 104.95L37.403126 104.95ZM40.621876 99.29375Q40.621876 97.2625 41.028126 96.02812Q41.45 94.79375 42.278126 94.12187Q43.10625 93.45 44.35625 93.45Q45.278126 93.45 45.965626 93.825Q46.66875 94.18437 47.121876 94.8875Q47.575 95.59062 47.825 96.59062Q48.090626 97.59062 48.090626 99.29375Q48.090626 101.30937 47.66875 102.55937Q47.2625 103.79375 46.434376 104.48125Q45.60625 105.15312 44.35625 105.15312Q42.7 105.15312 41.746876 103.95Q40.621876 102.52812 40.621876 99.29375ZM42.059376 99.29375Q42.059376 102.12187 42.715626 103.05937Q43.3875 103.98125 44.35625 103.98125Q45.325 103.98125 45.98125 103.04375Q46.6375 102.10625 46.6375 99.29375Q46.6375 96.46562 45.98125 95.54375Q45.325 94.60625 44.340626 94.60625Q43.371876 94.60625 42.79375 95.43437Q42.059376 96.48125 42.059376 99.29375ZM49.8875 96.24687Q49.8875 95.0125 50.496876 94.15312Q51.121876 93.29375 52.29375 93.29375Q53.371876 93.29375 54.075 94.075Q54.778126 94.84062 54.778126 96.325Q54.778126 97.77812 54.059376 98.575Q53.35625 99.35625 52.309376 99.35625Q51.2625 99.35625 50.575 98.59062Q49.8875 97.80937 49.8875 96.24687ZM52.325 94.2625Q51.809376 94.2625 51.45 94.71562Q51.10625 95.16875 51.10625 96.3875Q51.10625 97.48125 51.45 97.93437Q51.809376 98.3875 52.325 98.3875Q52.85625 98.3875 53.2 97.93437Q53.559376 97.48125 53.559376 96.27812Q53.559376 95.16875 53.2 94.71562Q52.85625 94.2625 52.325 94.2625ZM52.340626 105.37187L58.60625 93.29375L59.746876 93.29375L53.496876 105.37187L52.340626 105.37187ZM57.29375 102.2625Q57.29375 101.02812 57.903126 100.16875Q58.528126 99.30937 59.7 99.30937Q60.778126 99.30937 61.48125 100.09062Q62.2 100.85625 62.2 102.34062Q62.2 103.79375 61.48125 104.59062Q60.7625 105.37187 59.715626 105.37187Q58.66875 105.37187 57.98125 104.59062Q57.29375 103.80937 57.29375 102.2625ZM59.746876 100.27812Q59.215626 100.27812 58.85625 100.73125Q58.5125 101.18437 58.5125 102.40312Q58.5125 103.49687 58.85625 103.95Q59.215626 104.40312 59.73125 104.40312Q60.278126 104.40312 60.621876 103.95Q60.965626 103.49687 60.965626 102.29375Q60.965626 101.18437 60.60625 100.73125Q60.2625 100.27812 59.746876 100.27812Z" fill-rule="nonzero"/><path stroke="#757575" stroke-width="1.0" stroke-linecap="butt" d="M26.95 88.45L184.45 88.45L325.6805 65.595474" fill-rule="nonzero"/><path fill="#9e9e9e" d="M327.6805 65.595474C327.6805 64.490906 326.78506 63.595474 325.6805 63.595474C324.57593 63.595474 323.6805 64.490906 323.6805 65.595474C323.6805 66.70004 324.57593 67.595474 325.6805 67.595474C326.78506 67.595474 327.6805 66.70004 327.6805 65.595474" fill-rule="nonzero"/><path fill="#ffffff" d="M28.1375 123.95L28.1375 112.49687L30.41875 112.49687L33.1375 120.60625Q33.5125 121.73125 33.684376 122.29375Q33.871876 121.66875 34.29375 120.46562L37.028126 112.49687L39.075 112.49687L39.075 123.95L37.60625 123.95L37.60625 114.35625L34.278126 123.95L32.91875 123.95L29.60625 114.2L29.60625 123.95L28.1375 123.95ZM46.41875 122.91875Q45.6375 123.59062 44.91875 123.87187Q44.2 124.1375 43.371876 124.1375Q41.996876 124.1375 41.2625 123.46562Q40.528126 122.79375 40.528126 121.7625Q40.528126 121.15312 40.809376 120.65312Q41.090626 120.1375 41.528126 119.84062Q41.98125 119.52812 42.54375 119.37187Q42.965626 119.2625 43.79375 119.16875Q45.496876 118.96562 46.309376 118.68437Q46.309376 118.3875 46.309376 118.30937Q46.309376 117.45 45.91875 117.10625Q45.371876 116.62187 44.309376 116.62187Q43.325 116.62187 42.840626 116.98125Q42.371876 117.325 42.153126 118.2L40.778126 118.0125Q40.965626 117.1375 41.3875 116.59062Q41.825 116.04375 42.6375 115.7625Q43.45 115.46562 44.5125 115.46562Q45.575 115.46562 46.23125 115.71562Q46.903126 115.96562 47.215626 116.34062Q47.528126 116.71562 47.653126 117.29375Q47.73125 117.65312 47.73125 118.59062L47.73125 120.46562Q47.73125 122.43437 47.809376 122.95Q47.903126 123.46562 48.16875 123.95L46.7 123.95Q46.48125 123.5125 46.41875 122.91875ZM46.309376 119.77812Q45.54375 120.09062 44.0125 120.30937Q43.1375 120.43437 42.778126 120.59062Q42.41875 120.74687 42.215626 121.05937Q42.028126 121.35625 42.028126 121.71562Q42.028126 122.27812 42.45 122.65312Q42.8875 123.02812 43.7 123.02812Q44.5125 123.02812 45.1375 122.68437Q45.778126 122.325 46.075 121.7Q46.309376 121.23125 46.309376 120.29375L46.309376 119.77812ZM50.0125 114.10625L50.0125 112.49687L51.41875 112.49687L51.41875 114.10625L50.0125 114.10625ZM50.0125 123.95L50.0125 115.65312L51.41875 115.65312L51.41875 123.95L50.0125 123.95ZM54.0125 123.95L54.0125 115.65312L55.278126 115.65312L55.278126 116.825Q56.184376 115.46562 57.91875 115.46562Q58.66875 115.46562 59.29375 115.73125Q59.91875 115.99687 60.23125 116.43437Q60.54375 116.87187 60.66875 117.48125Q60.746876 117.87187 60.746876 118.84062L60.746876 123.95L59.340626 123.95L59.340626 118.90312Q59.340626 118.04375 59.16875 117.62187Q59.0125 117.18437 58.590626 116.93437Q58.184376 116.68437 57.621876 116.68437Q56.715626 116.68437 56.059376 117.2625Q55.41875 117.825 55.41875 119.41875L55.41875 123.95L54.0125 123.95ZM62.0125 123.95L62.0125 115.65312L63.278126 115.65312L63.278126 116.825Q64.18437 115.46562 65.91875 115.46562Q66.66875 115.46562 67.29375 115.73125Q67.91875 115.99687 68.23125 116.43437Q68.54375 116.87187 68.66875 117.48125Q68.74687 117.87187 68.74687 118.84062L68.74687 123.95L67.34062 123.95L67.34062 118.90312Q67.34062 118.04375 67.16875 117.62187Q67.0125 117.18437 66.59062 116.93437Q66.18437 116.68437 65.62187 116.68437Q64.71562 116.68437 64.05937 117.2625Q63.41875 117.825 63.41875 119.41875L63.41875 123.95L62.0125 123.95ZM75.68437 121.27812L77.1375 121.45Q76.79375 122.73125 75.85625 123.43437Q74.93437 124.1375 73.49687 124.1375Q71.66875 124.1375 70.60625 123.0125Q69.54375 121.8875 69.54375 119.87187Q69.54375 117.77812 70.62187 116.62187Q71.7 115.46562 73.41875 115.46562Q75.075 115.46562 76.12187 116.60625Q77.18437 117.73125 77.18437 119.77812Q77.18437 119.90312 77.18437 120.15312L70.99687 120.15312Q71.075 121.52812 71.7625 122.2625Q72.46562 122.98125 73.49687 122.98125Q74.27812 122.98125 74.825 122.575Q75.37187 122.16875 75.68437 121.27812ZM71.075 118.99687L75.7 118.99687Q75.60625 117.95 75.16875 117.43437Q74.49687 116.62187 73.43437 116.62187Q72.46562 116.62187 71.79375 117.27812Q71.1375 117.91875 71.075 118.99687ZM82.075 122.68437L82.27812 123.93437Q81.68437 124.05937 81.21562 124.05937Q80.45 124.05937 80.02812 123.825Q79.60625 123.575 79.43437 123.18437Q79.2625 122.77812 79.2625 121.5125L79.2625 116.74687L78.23125 116.74687L78.23125 115.65312L79.2625 115.65312L79.2625 113.59062L80.66875 112.74687L80.66875 115.65312L82.075 115.65312L82.075 116.74687L80.66875 116.74687L80.66875 121.59062Q80.66875 122.2 80.73125 122.37187Q80.80937 122.54375 80.98125 122.65312Q81.15312 122.74687 81.46562 122.74687Q81.7 122.74687 82.075 122.68437ZM87.45 123.95L87.45 112.49687L88.96562 112.49687L88.96562 123.95L87.45 123.95ZM90.0125 123.95L90.0125 115.65312L91.27812 115.65312L91.27812 116.825Q92.18437 115.46562 93.91875 115.46562Q94.66875 115.46562 95.29375 115.73125Q95.91875 115.99687 96.23125 116.43437Q96.54375 116.87187 96.66875 117.48125Q96.74687 117.87187 96.74687 118.84062L96.74687 123.95L95.34062 123.95L95.34062 118.90312Q95.34062 118.04375 95.16875 117.62187Q95.0125 117.18437 94.59062 116.93437Q94.18437 116.68437 93.62187 116.68437Q92.71562 116.68437 92.05937 117.2625Q91.41875 117.825 91.41875 119.41875L91.41875 123.95L90.0125 123.95ZM103.41875 120.90312L104.80937 121.09062Q104.575 122.5125 103.6375 123.325Q102.71562 124.1375 101.35625 124.1375Q99.65312 124.1375 98.60625 123.02812Q97.575 121.90312 97.575 119.825Q97.575 118.48125 98.0125 117.48125Q98.46562 116.46562 99.37187 115.96562Q100.29375 115.46562 101.35625 115.46562Q102.71562 115.46562 103.575 116.15312Q104.43437 116.825 104.66875 118.09062L103.30937 118.29375Q103.10625 117.46562 102.60625 117.04375Q102.12187 116.62187 101.41875 116.62187Q100.35625 116.62187 99.68437 117.3875Q99.02812 118.1375 99.02812 119.79375Q99.02812 121.46562 99.66875 122.23125Q100.30937 122.98125 101.34062 122.98125Q102.16875 122.98125 102.71562 122.48125Q103.27812 121.96562 103.41875 120.90312ZM111.68437 121.27812L113.1375 121.45Q112.79375 122.73125 111.85625 123.43437Q110.93437 124.1375 109.49687 124.1375Q107.66875 124.1375 106.60625 123.0125Q105.54375 121.8875 105.54375 119.87187Q105.54375 117.77812 106.62187 116.62187Q107.7 115.46562 109.41875 115.46562Q111.075 115.46562 112.12187 116.60625Q113.18437 117.73125 113.18437 119.77812Q113.18437 119.90312 113.18437 120.15312L106.99687 120.15312Q107.075 121.52812 107.7625 122.2625Q108.46562 122.98125 109.49687 122.98125Q110.27812 122.98125 110.825 122.575Q111.37187 122.16875 111.68437 121.27812ZM107.075 118.99687L111.7 118.99687Q111.60625 117.95 111.16875 117.43437Q110.49687 116.62187 109.43437 116.62187Q108.46562 116.62187 107.79375 117.27812Q107.1375 117.91875 107.075 118.99687ZM115.0125 123.95L115.0125 115.65312L116.27812 115.65312L116.27812 116.825Q117.18437 115.46562 118.91875 115.46562Q119.66875 115.46562 120.29375 115.73125Q120.91875 115.99687 121.23125 116.43437Q121.54375 116.87187 121.66875 117.48125Q121.74687 117.87187 121.74687 118.84062L121.74687 123.95L120.34062 123.95L120.34062 118.90312Q120.34062 118.04375 120.16875 117.62187Q120.0125 117.18437 119.59062 116.93437Q119.18437 116.68437 118.62187 116.68437Q117.71562 116.68437 117.05937 117.2625Q116.41875 117.825 116.41875 119.41875L116.41875 123.95L115.0125 123.95ZM126.075 122.68437L126.27812 123.93437Q125.68437 124.05937 125.21562 124.05937Q124.45 124.05937 124.02812 123.825Q123.60625 123.575 123.43437 123.18437Q123.2625 122.77812 123.2625 121.5125L123.2625 116.74687L122.23125 116.74687L122.23125 115.65312L123.2625 115.65312L123.2625 113.59062L124.66875 112.74687L124.66875 115.65312L126.075 115.65312L126.075 116.74687L124.66875 116.74687L124.66875 121.59062Q124.66875 122.2 124.73125 122.37187Q124.80937 122.54375 124.98125 122.65312Q125.15312 122.74687 125.46562 122.74687Q125.7 122.74687 126.075 122.68437ZM127.0125 114.10625L127.0125 112.49687L128.41875 112.49687L128.41875 114.10625L127.0125 114.10625ZM127.0125 123.95L127.0125 115.65312L128.41875 115.65312L128.41875 123.95L127.0125 123.95ZM133.30937 123.95L130.15312 115.65312L131.6375 115.65312L133.41875 120.62187Q133.71562 121.41875 133.95 122.29375Q134.1375 121.6375 134.48125 120.71562L136.325 115.65312L137.7625 115.65312L134.62187 123.95L133.30937 123.95ZM143.68437 121.27812L145.1375 121.45Q144.79375 122.73125 143.85625 123.43437Q142.93437 124.1375 141.49687 124.1375Q139.66875 124.1375 138.60625 123.0125Q137.54375 121.8875 137.54375 119.87187Q137.54375 117.77812 138.62187 116.62187Q139.7 115.46562 141.41875 115.46562Q143.075 115.46562 144.12187 116.60625Q145.18437 117.73125 145.18437 119.77812Q145.18437 119.90312 145.18437 120.15312L138.99687 120.15312Q139.075 121.52812 139.7625 122.2625Q140.46562 122.98125 141.49687 122.98125Q142.27812 122.98125 142.825 122.575Q143.37187 122.16875 143.68437 121.27812ZM139.075 118.99687L143.7 118.99687Q143.60625 117.95 143.16875 117.43437Q142.49687 116.62187 141.43437 116.62187Q140.46562 116.62187 139.79375 117.27812Q139.1375 117.91875 139.075 118.99687ZM146.45 121.46562L147.84062 121.24687Q147.95 122.09062 148.48125 122.54375Q149.02812 122.98125 149.98125 122.98125Q150.95 122.98125 151.41875 122.59062Q151.8875 122.18437 151.8875 121.65312Q151.8875 121.18437 151.48125 120.90312Q151.18437 120.71562 150.04375 120.43437Q148.49687 120.04375 147.8875 119.7625Q147.29375 119.46562 146.98125 118.96562Q146.68437 118.46562 146.68437 117.85625Q146.68437 117.29375 146.93437 116.825Q147.18437 116.35625 147.62187 116.04375Q147.95 115.79375 148.5125 115.6375Q149.09062 115.46562 149.73125 115.46562Q150.71562 115.46562 151.45 115.74687Q152.18437 116.02812 152.52812 116.5125Q152.8875 116.98125 153.02812 117.79375L151.65312 117.98125Q151.55937 117.34062 151.10625 116.98125Q150.65312 116.62187 149.84062 116.62187Q148.87187 116.62187 148.45 116.95Q148.04375 117.2625 148.04375 117.68437Q148.04375 117.96562 148.21562 118.18437Q148.3875 118.40312 148.74687 118.55937Q148.96562 118.6375 149.99687 118.91875Q151.48125 119.30937 152.075 119.575Q152.66875 119.825 152.99687 120.30937Q153.34062 120.79375 153.34062 121.5125Q153.34062 122.21562 152.91875 122.84062Q152.5125 123.45 151.73125 123.79375Q150.96562 124.1375 149.99687 124.1375Q148.37187 124.1375 147.52812 123.46562Q146.68437 122.79375 146.45 121.46562Z" fill-rule="nonzero"/><path fill="#9e9e9e" d="M29.778126 139.73125Q28.903126 139.41875 28.48125 138.825Q28.059376 138.23125 28.059376 137.40312Q28.059376 136.15312 28.95 135.30937Q29.85625 134.45 31.35625 134.45Q32.85625 134.45 33.7625 135.325Q34.684376 136.18437 34.684376 137.43437Q34.684376 138.23125 34.2625 138.825Q33.840626 139.41875 32.996876 139.73125Q34.04375 140.075 34.590626 140.84062Q35.153126 141.60625 35.153126 142.66875Q35.153126 144.1375 34.10625 145.15312Q33.075 146.15312 31.371876 146.15312Q29.684376 146.15312 28.6375 145.15312Q27.60625 144.1375 27.60625 142.6375Q27.60625 141.5125 28.16875 140.7625Q28.73125 140.0125 29.778126 139.73125ZM29.496876 137.35625Q29.496876 138.16875 30.0125 138.68437Q30.54375 139.2 31.3875 139.2Q32.2 139.2 32.715626 138.68437Q33.23125 138.16875 33.23125 137.43437Q33.23125 136.65312 32.7 136.1375Q32.16875 135.60625 31.371876 135.60625Q30.559376 135.60625 30.028126 136.12187Q29.496876 136.6375 29.496876 137.35625ZM29.04375 142.6375Q29.04375 143.24687 29.325 143.80937Q29.621876 144.37187 30.184376 144.68437Q30.746876 144.98125 31.3875 144.98125Q32.403126 144.98125 33.059376 144.34062Q33.715626 143.68437 33.715626 142.68437Q33.715626 141.66875 33.028126 141.0125Q32.35625 140.34062 31.340626 140.34062Q30.35625 140.34062 29.7 140.99687Q29.04375 141.65312 29.04375 142.6375ZM37.403126 145.95L37.403126 144.34062L39.0125 144.34062L39.0125 145.95L37.403126 145.95ZM40.621876 140.29375Q40.621876 138.2625 41.028126 137.02812Q41.45 135.79375 42.278126 135.12187Q43.10625 134.45 44.35625 134.45Q45.278126 134.45 45.965626 134.825Q46.66875 135.18437 47.121876 135.8875Q47.575 136.59062 47.825 137.59062Q48.090626 138.59062 48.090626 140.29375Q48.090626 142.30937 47.66875 143.55937Q47.2625 144.79375 46.434376 145.48125Q45.60625 146.15312 44.35625 146.15312Q42.7 146.15312 41.746876 144.95Q40.621876 143.52812 40.621876 140.29375ZM42.059376 140.29375Q42.059376 143.12187 42.715626 144.05937Q43.3875 144.98125 44.35625 144.98125Q45.325 144.98125 45.98125 144.04375Q46.6375 143.10625 46.6375 140.29375Q46.6375 137.46562 45.98125 136.54375Q45.325 135.60625 44.340626 135.60625Q43.371876 135.60625 42.79375 136.43437Q42.059376 137.48125 42.059376 140.29375ZM49.8875 137.24687Q49.8875 136.0125 50.496876 135.15312Q51.121876 134.29375 52.29375 134.29375Q53.371876 134.29375 54.075 135.075Q54.778126 135.84062 54.778126 137.325Q54.778126 138.77812 54.059376 139.575Q53.35625 140.35625 52.309376 140.35625Q51.2625 140.35625 50.575 139.59062Q49.8875 138.80937 49.8875 137.24687ZM52.325 135.2625Q51.809376 135.2625 51.45 135.71562Q51.10625 136.16875 51.10625 137.3875Q51.10625 138.48125 51.45 138.93437Q51.809376 139.3875 52.325 139.3875Q52.85625 139.3875 53.2 138.93437Q53.559376 138.48125 53.559376 137.27812Q53.559376 136.16875 53.2 135.71562Q52.85625 135.2625 52.325 135.2625ZM52.340626 146.37187L58.60625 134.29375L59.746876 134.29375L53.496876 146.37187L52.340626 146.37187ZM57.29375 143.2625Q57.29375 142.02812 57.903126 141.16875Q58.528126 140.30937 59.7 140.30937Q60.778126 140.30937 61.48125 141.09062Q62.2 141.85625 62.2 143.34062Q62.2 144.79375 61.48125 145.59062Q60.7625 146.37187 59.715626 146.37187Q58.66875 146.37187 57.98125 145.59062Q57.29375 144.80937 57.29375 143.2625ZM59.746876 141.27812Q59.215626 141.27812 58.85625 141.73125Q58.5125 142.18437 58.5125 143.40312Q58.5125 144.49687 58.85625 144.95Q59.215626 145.40312 59.73125 145.40312Q60.278126 145.40312 60.621876 144.95Q60.965626 144.49687 60.965626 143.29375Q60.965626 142.18437 60.60625 141.73125Q60.2625 141.27812 59.746876 141.27812Z" fill-rule="nonzero"/><path stroke="#757575" stroke-width="1.0" stroke-linecap="butt" d="M26.95 129.45L184.45 129.45L253.49153 125.03119" fill-rule="nonzero"/><path fill="#9e9e9e" d="M255.49153 125.03119C255.49153 123.92662 254.5961 123.03119 253.49153 123.03119C252.38696 123.03119 251.49153 123.92662 251.49153 125.03119C251.49153 126.13576 252.38696 127.03119 253.49153 127.03119C254.5961 127.03119 255.49153 126.13576 255.49153 125.03119" fill-rule="nonzero"/><path fill="#ffffff" d="M28.2625 389.76508L28.2625 378.31195L35.996876 378.31195L35.996876 379.6557L29.778126 379.6557L29.778126 383.20258L35.153126 383.20258L35.153126 384.56195L29.778126 384.56195L29.778126 389.76508L28.2625 389.76508ZM37.48125 385.60883Q37.48125 383.31195 38.7625 382.20258Q39.840626 381.2807 41.371876 381.2807Q43.090626 381.2807 44.16875 382.4057Q45.2625 383.51508 45.2625 385.49945Q45.2625 387.0932 44.778126 388.01508Q44.29375 388.93695 43.371876 389.45258Q42.465626 389.95258 41.371876 389.95258Q39.6375 389.95258 38.559376 388.8432Q37.48125 387.7182 37.48125 385.60883ZM38.934376 385.60883Q38.934376 387.20258 39.621876 387.99945Q40.325 388.79633 41.371876 388.79633Q42.41875 388.79633 43.10625 387.99945Q43.809376 387.20258 43.809376 385.56195Q43.809376 384.0307 43.10625 383.23383Q42.41875 382.43695 41.371876 382.43695Q40.325 382.43695 39.621876 383.23383Q38.934376 384.01508 38.934376 385.60883ZM52.45 389.76508L52.45 388.54633Q51.48125 389.95258 49.809376 389.95258Q49.075 389.95258 48.434376 389.67133Q47.809376 389.39008 47.496876 388.9682Q47.184376 388.5307 47.059376 387.92133Q46.98125 387.49945 46.98125 386.60883L46.98125 381.4682L48.3875 381.4682L48.3875 386.06195Q48.3875 387.17133 48.465626 387.54633Q48.60625 388.10883 49.028126 388.42133Q49.465626 388.73383 50.090626 388.73383Q50.73125 388.73383 51.278126 388.42133Q51.840626 388.0932 52.059376 387.5307Q52.29375 386.9682 52.29375 385.9057L52.29375 381.4682L53.7 381.4682L53.7 389.76508L52.45 389.76508ZM55.0125 389.76508L55.0125 381.4682L56.278126 381.4682L56.278126 382.64008Q57.184376 381.2807 58.91875 381.2807Q59.66875 381.2807 60.29375 381.54633Q60.91875 381.81195 61.23125 382.24945Q61.54375 382.68695 61.66875 383.29633Q61.746876 383.68695 61.746876 384.6557L61.746876 389.76508L60.340626 389.76508L60.340626 384.7182Q60.340626 383.85883 60.16875 383.43695Q60.0125 382.99945 59.590626 382.74945Q59.184376 382.49945 58.621876 382.49945Q57.715626 382.49945 57.059376 383.07758Q56.41875 383.64008 56.41875 385.23383L56.41875 389.76508L55.0125 389.76508ZM68.3875 389.76508L68.3875 388.7182Q67.60625 389.95258 66.075 389.95258Q65.075 389.95258 64.24687 389.4057Q63.41875 388.85883 62.95 387.87445Q62.496876 386.89008 62.496876 385.62445Q62.496876 384.37445 62.903126 383.37445Q63.325 382.35883 64.15312 381.82758Q64.98125 381.2807 66.0125 381.2807Q66.7625 381.2807 67.34062 381.5932Q67.93437 381.9057 68.29375 382.42133L68.29375 378.31195L69.7 378.31195L69.7 389.76508L68.3875 389.76508ZM63.95 385.62445Q63.95 387.2182 64.62187 388.01508Q65.29375 388.79633 66.2 388.79633Q67.12187 388.79633 67.7625 388.04633Q68.41875 387.2807 68.41875 385.73383Q68.41875 384.0307 67.7625 383.23383Q67.10625 382.43695 66.1375 382.43695Q65.2 382.43695 64.575 383.20258Q63.95 383.9682 63.95 385.62445ZM77.41875 388.73383Q76.6375 389.4057 75.91875 389.68695Q75.2 389.95258 74.37187 389.95258Q72.99687 389.95258 72.2625 389.2807Q71.52812 388.60883 71.52812 387.57758Q71.52812 386.9682 71.80937 386.4682Q72.09062 385.95258 72.52812 385.6557Q72.98125 385.3432 73.54375 385.18695Q73.96562 385.07758 74.79375 384.98383Q76.49687 384.7807 77.30937 384.49945Q77.30937 384.20258 77.30937 384.12445Q77.30937 383.26508 76.91875 382.92133Q76.37187 382.43695 75.30937 382.43695Q74.325 382.43695 73.84062 382.79633Q73.37187 383.14008 73.15312 384.01508L71.77812 383.82758Q71.96562 382.95258 72.3875 382.4057Q72.825 381.85883 73.6375 381.57758Q74.45 381.2807 75.5125 381.2807Q76.575 381.2807 77.23125 381.5307Q77.90312 381.7807 78.21562 382.1557Q78.52812 382.5307 78.65312 383.10883Q78.73125 383.4682 78.73125 384.4057L78.73125 386.2807Q78.73125 388.24945 78.80937 388.76508Q78.90312 389.2807 79.16875 389.76508L77.7 389.76508Q77.48125 389.32758 77.41875 388.73383ZM77.30937 385.5932Q76.54375 385.9057 75.0125 386.12445Q74.1375 386.24945 73.77812 386.4057Q73.41875 386.56195 73.21562 386.87445Q73.02812 387.17133 73.02812 387.5307Q73.02812 388.0932 73.45 388.4682Q73.8875 388.8432 74.7 388.8432Q75.5125 388.8432 76.1375 388.49945Q76.77812 388.14008 77.075 387.51508Q77.30937 387.04633 77.30937 386.10883L77.30937 385.5932ZM84.075 388.49945L84.27812 389.74945Q83.68437 389.87445 83.21562 389.87445Q82.45 389.87445 82.02812 389.64008Q81.60625 389.39008 81.43437 388.99945Q81.2625 388.5932 81.2625 387.32758L81.2625 382.56195L80.23125 382.56195L80.23125 381.4682L81.2625 381.4682L81.2625 379.4057L82.66875 378.56195L82.66875 381.4682L84.075 381.4682L84.075 382.56195L82.66875 382.56195L82.66875 387.4057Q82.66875 388.01508 82.73125 388.18695Q82.80937 388.35883 82.98125 388.4682Q83.15312 388.56195 83.46562 388.56195Q83.7 388.56195 84.075 388.49945ZM85.0125 379.92133L85.0125 378.31195L86.41875 378.31195L86.41875 379.92133L85.0125 379.92133ZM85.0125 389.76508L85.0125 381.4682L86.41875 381.4682L86.41875 389.76508L85.0125 389.76508ZM88.48125 385.60883Q88.48125 383.31195 89.7625 382.20258Q90.84062 381.2807 92.37187 381.2807Q94.09062 381.2807 95.16875 382.4057Q96.2625 383.51508 96.2625 385.49945Q96.2625 387.0932 95.77812 388.01508Q95.29375 388.93695 94.37187 389.45258Q93.46562 389.95258 92.37187 389.95258Q90.6375 389.95258 89.55937 388.8432Q88.48125 387.7182 88.48125 385.60883ZM89.93437 385.60883Q89.93437 387.20258 90.62187 387.99945Q91.325 388.79633 92.37187 388.79633Q93.41875 388.79633 94.10625 387.99945Q94.80937 387.20258 94.80937 385.56195Q94.80937 384.0307 94.10625 383.23383Q93.41875 382.43695 92.37187 382.43695Q91.325 382.43695 90.62187 383.23383Q89.93437 384.01508 89.93437 385.60883ZM98.0125 389.76508L98.0125 381.4682L99.27812 381.4682L99.27812 382.64008Q100.18437 381.2807 101.91875 381.2807Q102.66875 381.2807 103.29375 381.54633Q103.91875 381.81195 104.23125 382.24945Q104.54375 382.68695 104.66875 383.29633Q104.74687 383.68695 104.74687 384.6557L104.74687 389.76508L103.34062 389.76508L103.34062 384.7182Q103.34062 383.85883 103.16875 383.43695Q103.0125 382.99945 102.59062 382.74945Q102.18437 382.49945 101.62187 382.49945Q100.71562 382.49945 100.05937 383.07758Q99.41875 383.64008 99.41875 385.23383L99.41875 389.76508L98.0125 389.76508ZM116.55937 388.4057Q115.85625 389.18695 115.02812 389.57758Q114.21562 389.9682 113.2625 389.9682Q111.5125 389.9682 110.48125 388.76508Q109.6375 387.79633 109.6375 386.60883Q109.6375 385.54633 110.325 384.68695Q111.0125 383.82758 112.37187 383.18695Q111.59062 382.29633 111.325 381.74945Q111.075 381.18695 111.075 380.67133Q111.075 379.64008 111.8875 378.87445Q112.7 378.10883 113.91875 378.10883Q115.09062 378.10883 115.84062 378.82758Q116.59062 379.54633 116.59062 380.56195Q116.59062 382.18695 114.41875 383.3432L116.48125 385.9682Q116.825 385.2807 117.02812 384.37445L118.48125 384.68695Q118.10625 386.18695 117.46562 387.1557Q118.2625 388.20258 119.2625 388.9057L118.30937 390.0307Q117.46562 389.48383 116.55937 388.4057ZM113.7 382.43695Q114.60625 381.9057 114.87187 381.49945Q115.15312 381.0932 115.15312 380.5932Q115.15312 380.01508 114.77812 379.64008Q114.40312 379.26508 113.85625 379.26508Q113.27812 379.26508 112.90312 379.64008Q112.52812 379.99945 112.52812 380.5307Q112.52812 380.79633 112.65312 381.0932Q112.79375 381.39008 113.075 381.7182L113.7 382.43695ZM115.66875 387.29633L113.09062 384.10883Q111.95 384.7807 111.54375 385.37445Q111.15312 385.95258 111.15312 386.51508Q111.15312 387.2182 111.7 387.9682Q112.2625 388.7182 113.27812 388.7182Q113.91875 388.7182 114.59062 388.32758Q115.2625 387.92133 115.66875 387.29633Z" fill-rule="nonzero"/><path fill="#9e9e9e" d="M27.621876 408.73383L29.028126 408.54633Q29.278126 409.74945 29.85625 410.2807Q30.434376 410.79633 31.278126 410.79633Q32.2625 410.79633 32.95 410.10883Q33.6375 409.42133 33.6375 408.4057Q33.6375 407.43695 32.996876 406.81195Q32.371876 406.18695 31.3875 406.18695Q30.996876 406.18695 30.403126 406.3432L30.559376 405.10883Q30.7 405.12445 30.778126 405.12445Q31.684376 405.12445 32.403126 404.6557Q33.121876 404.18695 33.121876 403.20258Q33.121876 402.43695 32.590626 401.93695Q32.075 401.42133 31.246876 401.42133Q30.41875 401.42133 29.871876 401.93695Q29.325 402.45258 29.16875 403.48383L27.7625 403.23383Q28.028126 401.81195 28.934376 401.04633Q29.85625 400.26508 31.215626 400.26508Q32.153126 400.26508 32.934376 400.67133Q33.73125 401.06195 34.1375 401.76508Q34.559376 402.45258 34.559376 403.23383Q34.559376 403.98383 34.153126 404.5932Q33.7625 405.20258 32.98125 405.56195Q33.996876 405.79633 34.559376 406.5307Q35.121876 407.26508 35.121876 408.37445Q35.121876 409.87445 34.028126 410.92133Q32.934376 411.9682 31.2625 411.9682Q29.7625 411.9682 28.7625 411.07758Q27.7625 410.17133 27.621876 408.73383ZM41.91875 411.76508L40.5125 411.76508L40.5125 402.79633Q39.996876 403.2807 39.16875 403.76508Q38.35625 404.24945 37.7 404.49945L37.7 403.14008Q38.871876 402.57758 39.746876 401.79633Q40.6375 400.99945 41.0125 400.26508L41.91875 400.26508L41.91875 411.76508ZM46.403126 411.76508L46.403126 410.1557L48.0125 410.1557L48.0125 411.76508L46.403126 411.76508ZM49.825 409.10883L51.184376 408.98383Q51.35625 409.93695 51.840626 410.37445Q52.325 410.79633 53.075 410.79633Q53.73125 410.79633 54.215626 410.49945Q54.7 410.20258 55.0125 409.7182Q55.325 409.2182 55.528126 408.37445Q55.746876 407.5307 55.746876 406.6557Q55.746876 406.56195 55.746876 406.37445Q55.325 407.04633 54.590626 407.4682Q53.85625 407.87445 53.0125 407.87445Q51.590626 407.87445 50.60625 406.8432Q49.621876 405.81195 49.621876 404.12445Q49.621876 402.39008 50.6375 401.32758Q51.66875 400.26508 53.215626 400.26508Q54.340626 400.26508 55.2625 400.87445Q56.184376 401.4682 56.66875 402.57758Q57.153126 403.68695 57.153126 405.79633Q57.153126 407.99945 56.66875 409.29633Q56.2 410.5932 55.246876 411.2807Q54.309376 411.9682 53.04375 411.9682Q51.7 411.9682 50.840626 411.2182Q49.996876 410.4682 49.825 409.10883ZM55.590626 404.06195Q55.590626 402.8432 54.934376 402.14008Q54.29375 401.42133 53.3875 401.42133Q52.45 401.42133 51.746876 402.18695Q51.059376 402.95258 51.059376 404.17133Q51.059376 405.26508 51.715626 405.95258Q52.3875 406.64008 53.35625 406.64008Q54.325 406.64008 54.95 405.95258Q55.590626 405.26508 55.590626 404.06195ZM58.8875 403.06195Q58.8875 401.82758 59.496876 400.9682Q60.121876 400.10883 61.29375 400.10883Q62.371876 400.10883 63.075 400.89008Q63.778126 401.6557 63.778126 403.14008Q63.778126 404.5932 63.059376 405.39008Q62.35625 406.17133 61.309376 406.17133Q60.2625 406.17133 59.575 405.4057Q58.8875 404.62445 58.8875 403.06195ZM61.325 401.07758Q60.809376 401.07758 60.45 401.5307Q60.10625 401.98383 60.10625 403.20258Q60.10625 404.29633 60.45 404.74945Q60.809376 405.20258 61.325 405.20258Q61.85625 405.20258 62.2 404.74945Q62.559376 404.29633 62.559376 403.0932Q62.559376 401.98383 62.2 401.5307Q61.85625 401.07758 61.325 401.07758ZM61.340626 412.18695L67.60625 400.10883L68.74687 400.10883L62.496876 412.18695L61.340626 412.18695ZM66.29375 409.07758Q66.29375 407.8432 66.90312 406.98383Q67.52812 406.12445 68.7 406.12445Q69.77812 406.12445 70.48125 406.9057Q71.2 407.67133 71.2 409.1557Q71.2 410.60883 70.48125 411.4057Q69.7625 412.18695 68.71562 412.18695Q67.66875 412.18695 66.98125 411.4057Q66.29375 410.62445 66.29375 409.07758ZM68.74687 407.0932Q68.21562 407.0932 67.85625 407.54633Q67.5125 407.99945 67.5125 409.2182Q67.5125 410.31195 67.85625 410.76508Q68.21562 411.2182 68.73125 411.2182Q69.27812 411.2182 69.62187 410.76508Q69.96562 410.31195 69.96562 409.10883Q69.96562 407.99945 69.60625 407.54633Q69.2625 407.0932 68.74687 407.0932Z" fill-rule="nonzero"/><path stroke="#757575" stroke-width="1.0" stroke-linecap="butt" d="M26.95 395.26508L184.45 395.26508L239.92572 395.26508" fill-rule="nonzero"/><path fill="#9e9e9e" d="M241.92572 395.26508C241.92572 394.1605 241.03029 393.26508 239.92572 393.26508C238.82115 393.26508 237.92572 394.1605 237.92572 395.26508C237.92572 396.36963 238.82115 397.26508 239.92572 397.26508C241.03029 397.26508 241.92572 396.36963 241.92572 395.26508" fill-rule="nonzero"/><path fill="#ffffff" d="M801.76874 45.169395L803.20624 45.044395Q803.3 45.90377 803.675 46.46627Q804.05 47.013145 804.83124 47.356895Q805.6125 47.68502 806.58124 47.68502Q807.45624 47.68502 808.1125 47.43502Q808.78436 47.169395 809.09686 46.731895Q809.425 46.27877 809.425 45.74752Q809.425 45.200645 809.1125 44.81002Q808.8 44.40377 808.08124 44.12252Q807.6281 43.950645 806.05 43.575645Q804.47186 43.18502 803.83124 42.856895Q803.01874 42.419395 802.6125 41.794395Q802.20624 41.15377 802.20624 40.356895Q802.20624 39.49752 802.6906 38.74752Q803.1906 37.981895 804.1281 37.59127Q805.08124 37.200645 806.2375 37.200645Q807.51874 37.200645 808.4875 37.62252Q809.45624 38.02877 809.97186 38.825645Q810.5031 39.62252 810.55 40.62252L809.09686 40.731895Q808.97186 39.65377 808.3 39.106895Q807.6281 38.544395 806.3 38.544395Q804.925 38.544395 804.3 39.044395Q803.675 39.544395 803.675 40.263145Q803.675 40.87252 804.1125 41.27877Q804.55 41.669395 806.39374 42.09127Q808.2531 42.513145 808.9406 42.825645Q809.9406 43.27877 810.40936 43.99752Q810.89374 44.700645 810.89374 45.62252Q810.89374 46.52877 810.3625 47.34127Q809.84686 48.15377 808.8625 48.606895Q807.8781 49.06002 806.65936 49.06002Q805.09686 49.06002 804.05 48.606895Q803.0031 48.138145 802.39374 47.231895Q801.8 46.325645 801.76874 45.169395ZM818.78436 46.18502L820.2375 46.356895Q819.89374 47.638145 818.95624 48.34127Q818.03436 49.044395 816.59686 49.044395Q814.76874 49.044395 813.70624 47.919395Q812.64374 46.794395 812.64374 44.77877Q812.64374 42.68502 813.72186 41.52877Q814.8 40.37252 816.51874 40.37252Q818.175 40.37252 819.22186 41.513145Q820.28436 42.638145 820.28436 44.68502Q820.28436 44.81002 820.28436 45.06002L814.09686 45.06002Q814.175 46.43502 814.8625 47.169395Q815.5656 47.888145 816.59686 47.888145Q817.3781 47.888145 817.925 47.481895Q818.47186 47.075645 818.78436 46.18502ZM814.175 43.90377L818.8 43.90377Q818.70624 42.856895 818.26874 42.34127Q817.59686 41.52877 816.53436 41.52877Q815.5656 41.52877 814.89374 42.18502Q814.2375 42.825645 814.175 43.90377ZM827.78436 46.18502L829.2375 46.356895Q828.89374 47.638145 827.95624 48.34127Q827.03436 49.044395 825.59686 49.044395Q823.76874 49.044395 822.70624 47.919395Q821.64374 46.794395 821.64374 44.77877Q821.64374 42.68502 822.72186 41.52877Q823.8 40.37252 825.51874 40.37252Q827.175 40.37252 828.22186 41.513145Q829.28436 42.638145 829.28436 44.68502Q829.28436 44.81002 829.28436 45.06002L823.09686 45.06002Q823.175 46.43502 823.8625 47.169395Q824.5656 47.888145 825.59686 47.888145Q826.3781 47.888145 826.925 47.481895Q827.47186 47.075645 827.78436 46.18502ZM823.175 43.90377L827.8 43.90377Q827.70624 42.856895 827.26874 42.34127Q826.59686 41.52877 825.53436 41.52877Q824.5656 41.52877 823.89374 42.18502Q823.2375 42.825645 823.175 43.90377ZM836.4875 48.856895L836.4875 47.81002Q835.70624 49.044395 834.175 49.044395Q833.175 49.044395 832.34686 48.49752Q831.51874 47.950645 831.05 46.96627Q830.59686 45.981895 830.59686 44.71627Q830.59686 43.46627 831.0031 42.46627Q831.425 41.450645 832.2531 40.919395Q833.08124 40.37252 834.1125 40.37252Q834.8625 40.37252 835.4406 40.68502Q836.03436 40.99752 836.39374 41.513145L836.39374 37.40377L837.8 37.40377L837.8 48.856895L836.4875 48.856895ZM832.05 44.71627Q832.05 46.31002 832.72186 47.106895Q833.39374 47.888145 834.3 47.888145Q835.22186 47.888145 835.8625 47.138145Q836.51874 46.37252 836.51874 44.825645Q836.51874 43.12252 835.8625 42.325645Q835.20624 41.52877 834.2375 41.52877Q833.3 41.52877 832.675 42.294395Q832.05 43.06002 832.05 44.71627Z" fill-rule="nonzero"/><path fill="#9e9e9e" d="M800.01874 70.856895L798.6125 70.856895L798.6125 61.888145Q798.09686 62.37252 797.26874 62.856895Q796.45624 63.34127 795.8 63.59127L795.8 62.231895Q796.97186 61.669395 797.84686 60.888145Q798.7375 60.09127 799.1125 59.356895L800.01874 59.356895L800.01874 70.856895ZM809.01874 70.856895L807.6125 70.856895L807.6125 61.888145Q807.09686 62.37252 806.26874 62.856895Q805.45624 63.34127 804.8 63.59127L804.8 62.231895Q805.97186 61.669395 806.84686 60.888145Q807.7375 60.09127 808.1125 59.356895L809.01874 59.356895L809.01874 70.856895ZM813.5031 70.856895L813.5031 69.24752L815.1125 69.24752L815.1125 70.856895L813.5031 70.856895ZM816.8156 60.90377L816.8156 59.544395L824.22186 59.544395L824.22186 60.638145Q823.1281 61.81002 822.05 63.74752Q820.9875 65.669395 820.39374 67.700645Q819.97186 69.138145 819.8625 70.856895L818.40936 70.856895Q818.4406 69.49752 818.9406 67.59127Q819.45624 65.669395 820.39374 63.90377Q821.34686 62.12252 822.425 60.90377L816.8156 60.90377ZM825.9875 62.15377Q825.9875 60.919395 826.59686 60.06002Q827.22186 59.200645 828.39374 59.200645Q829.47186 59.200645 830.175 59.981895Q830.8781 60.74752 830.8781 62.231895Q830.8781 63.68502 830.15936 64.481895Q829.45624 65.263145 828.40936 65.263145Q827.3625 65.263145 826.675 64.49752Q825.9875 63.71627 825.9875 62.15377ZM828.425 60.169395Q827.90936 60.169395 827.55 60.62252Q827.20624 61.075645 827.20624 62.294395Q827.20624 63.388145 827.55 63.84127Q827.90936 64.294395 828.425 64.294395Q828.95624 64.294395 829.3 63.84127Q829.65936 63.388145 829.65936 62.18502Q829.65936 61.075645 829.3 60.62252Q828.95624 60.169395 828.425 60.169395ZM828.4406 71.27877L834.70624 59.200645L835.84686 59.200645L829.59686 71.27877L828.4406 71.27877ZM833.39374 68.169395Q833.39374 66.93502 834.0031 66.075645Q834.6281 65.21627 835.8 65.21627Q836.8781 65.21627 837.58124 65.99752Q838.3 66.763145 838.3 68.24752Q838.3 69.700645 837.58124 70.49752Q836.8625 71.27877 835.8156 71.27877Q834.76874 71.27877 834.08124 70.49752Q833.39374 69.71627 833.39374 68.169395ZM835.84686 66.18502Q835.3156 66.18502 834.95624 66.638145Q834.6125 67.09127 834.6125 68.31002Q834.6125 69.40377 834.95624 69.856895Q835.3156 70.31002 835.83124 70.31002Q836.3781 70.31002 836.72186 69.856895Q837.0656 69.40377 837.0656 68.200645Q837.0656 67.09127 836.70624 66.638145Q836.3625 66.18502 835.84686 66.18502Z" fill-rule="nonzero"/><path stroke="#757575" stroke-width="1.0" stroke-linecap="butt" d="M839.05 54.356895L681.55 54.356895L515.51044 54.356895" fill-rule="nonzero"/><path fill="#9e9e9e" d="M517.51044 54.356895C517.51044 53.252323 516.615 52.356895 515.51044 52.356895C514.4059 52.356895 513.51044 53.252323 513.51044 54.356895C513.51044 55.461464 514.4059 56.356895 515.51044 56.356895C516.615 56.356895 517.51044 55.461464 517.51044 54.356895" fill-rule="nonzero"/><path fill="#ffffff" d="M778.76874 174.0114L780.20624 173.8864Q780.3 174.74577 780.675 175.30827Q781.05 175.85515 781.83124 176.1989Q782.6125 176.52702 783.58124 176.52702Q784.45624 176.52702 785.1125 176.27702Q785.78436 176.0114 786.09686 175.5739Q786.425 175.12077 786.425 174.58952Q786.425 174.04265 786.1125 173.65202Q785.8 173.24577 785.08124 172.96452Q784.6281 172.79265 783.05 172.41765Q781.47186 172.02702 780.83124 171.6989Q780.01874 171.2614 779.6125 170.6364Q779.20624 169.99577 779.20624 169.1989Q779.20624 168.33952 779.6906 167.58952Q780.1906 166.8239 781.1281 166.43327Q782.08124 166.04265 783.2375 166.04265Q784.51874 166.04265 785.4875 166.46452Q786.45624 166.87077 786.97186 167.66765Q787.5031 168.46452 787.55 169.46452L786.09686 169.5739Q785.97186 168.49577 785.3 167.9489Q784.6281 167.3864 783.3 167.3864Q781.925 167.3864 781.3 167.8864Q780.675 168.3864 780.675 169.10515Q780.675 169.71452 781.1125 170.12077Q781.55 170.5114 783.39374 170.93327Q785.2531 171.35515 785.9406 171.66765Q786.9406 172.12077 787.40936 172.83952Q787.89374 173.54265 787.89374 174.46452Q787.89374 175.37077 787.3625 176.18327Q786.84686 176.99577 785.8625 177.4489Q784.8781 177.90202 783.65936 177.90202Q782.09686 177.90202 781.05 177.4489Q780.0031 176.98015 779.39374 176.0739Q778.8 175.16765 778.76874 174.0114ZM795.78436 175.02702L797.2375 175.1989Q796.89374 176.48015 795.95624 177.18327Q795.03436 177.8864 793.59686 177.8864Q791.76874 177.8864 790.70624 176.7614Q789.64374 175.6364 789.64374 173.62077Q789.64374 171.52702 790.72186 170.37077Q791.8 169.21452 793.51874 169.21452Q795.175 169.21452 796.22186 170.35515Q797.28436 171.48015 797.28436 173.52702Q797.28436 173.65202 797.28436 173.90202L791.09686 173.90202Q791.175 175.27702 791.8625 176.0114Q792.5656 176.73015 793.59686 176.73015Q794.3781 176.73015 794.925 176.3239Q795.47186 175.91765 795.78436 175.02702ZM791.175 172.74577L795.8 172.74577Q795.70624 171.6989 795.26874 171.18327Q794.59686 170.37077 793.53436 170.37077Q792.5656 170.37077 791.89374 171.02702Q791.2375 171.66765 791.175 172.74577ZM799.09686 177.6989L799.09686 169.40202L800.3625 169.40202L800.3625 170.65202Q800.84686 169.77702 801.2531 169.49577Q801.65936 169.21452 802.15936 169.21452Q802.8625 169.21452 803.59686 169.66765L803.1125 170.96452Q802.59686 170.66765 802.08124 170.66765Q801.6281 170.66765 801.2531 170.9489Q800.89374 171.21452 800.7375 171.71452Q800.5031 172.46452 800.5031 173.35515L800.5031 177.6989L799.09686 177.6989ZM804.1125 167.85515L804.1125 166.24577L805.51874 166.24577L805.51874 167.85515L804.1125 167.85515ZM804.1125 177.6989L804.1125 169.40202L805.51874 169.40202L805.51874 177.6989L804.1125 177.6989ZM813.78436 175.02702L815.2375 175.1989Q814.89374 176.48015 813.95624 177.18327Q813.03436 177.8864 811.59686 177.8864Q809.76874 177.8864 808.70624 176.7614Q807.64374 175.6364 807.64374 173.62077Q807.64374 171.52702 808.72186 170.37077Q809.8 169.21452 811.51874 169.21452Q813.175 169.21452 814.22186 170.35515Q815.28436 171.48015 815.28436 173.52702Q815.28436 173.65202 815.28436 173.90202L809.09686 173.90202Q809.175 175.27702 809.8625 176.0114Q810.5656 176.73015 811.59686 176.73015Q812.3781 176.73015 812.925 176.3239Q813.47186 175.91765 813.78436 175.02702ZM809.175 172.74577L813.8 172.74577Q813.70624 171.6989 813.26874 171.18327Q812.59686 170.37077 811.53436 170.37077Q810.5656 170.37077 809.89374 171.02702Q809.2375 171.66765 809.175 172.74577ZM816.55 175.21452L817.9406 174.99577Q818.05 175.83952 818.58124 176.29265Q819.1281 176.73015 820.08124 176.73015Q821.05 176.73015 821.51874 176.33952Q821.9875 175.93327 821.9875 175.40202Q821.9875 174.93327 821.58124 174.65202Q821.28436 174.46452 820.14374 174.18327Q818.59686 173.79265 817.9875 173.5114Q817.39374 173.21452 817.08124 172.71452Q816.78436 172.21452 816.78436 171.60515Q816.78436 171.04265 817.03436 170.5739Q817.28436 170.10515 817.72186 169.79265Q818.05 169.54265 818.6125 169.3864Q819.1906 169.21452 819.83124 169.21452Q820.8156 169.21452 821.55 169.49577Q822.28436 169.77702 822.6281 170.2614Q822.9875 170.73015 823.1281 171.54265L821.7531 171.73015Q821.65936 171.08952 821.20624 170.73015Q820.7531 170.37077 819.9406 170.37077Q818.97186 170.37077 818.55 170.6989Q818.14374 171.0114 818.14374 171.43327Q818.14374 171.71452 818.3156 171.93327Q818.4875 172.15202 818.84686 172.30827Q819.0656 172.3864 820.09686 172.66765Q821.58124 173.05827 822.175 173.3239Q822.76874 173.5739 823.09686 174.05827Q823.4406 174.54265 823.4406 175.2614Q823.4406 175.96452 823.01874 176.58952Q822.6125 177.1989 821.83124 177.54265Q821.0656 177.8864 820.09686 177.8864Q818.47186 177.8864 817.6281 177.21452Q816.78436 176.54265 816.55 175.21452ZM828.01874 177.6989L832.425 166.24577L834.0656 166.24577L838.7531 177.6989L837.01874 177.6989L835.6906 174.23015L830.89374 174.23015L829.64374 177.6989L828.01874 177.6989ZM831.33124 172.99577L835.22186 172.99577L834.01874 169.8239Q833.47186 168.37077 833.20624 167.4489Q832.9875 168.54265 832.59686 169.6364L831.33124 172.99577Z" fill-rule="nonzero"/><path fill="#9e9e9e" d="M800.01874 199.6989L798.6125 199.6989L798.6125 190.73015Q798.09686 191.21452 797.26874 191.6989Q796.45624 192.18327 795.8 192.43327L795.8 191.0739Q796.97186 190.5114 797.84686 189.73015Q798.7375 188.93327 799.1125 188.1989L800.01874 188.1989L800.01874 199.6989ZM808.22186 199.6989L808.22186 196.9489L803.2531 196.9489L803.2531 195.66765L808.4875 188.24577L809.6281 188.24577L809.6281 195.66765L811.175 195.66765L811.175 196.9489L809.6281 196.9489L809.6281 199.6989L808.22186 199.6989ZM808.22186 195.66765L808.22186 190.49577L804.64374 195.66765L808.22186 195.66765ZM813.5031 199.6989L813.5031 198.08952L815.1125 198.08952L815.1125 199.6989L813.5031 199.6989ZM816.72186 196.6989L818.1906 196.5739Q818.3625 197.65202 818.95624 198.1989Q819.55 198.73015 820.39374 198.73015Q821.40936 198.73015 822.1125 197.96452Q822.8156 197.1989 822.8156 195.93327Q822.8156 194.73015 822.14374 194.04265Q821.47186 193.33952 820.3781 193.33952Q819.6906 193.33952 819.14374 193.65202Q818.59686 193.96452 818.28436 194.4489L816.97186 194.27702L818.08124 188.40202L823.76874 188.40202L823.76874 189.74577L819.20624 189.74577L818.58124 192.8239Q819.6125 192.10515 820.7531 192.10515Q822.2531 192.10515 823.28436 193.15202Q824.3156 194.18327 824.3156 195.80827Q824.3156 197.37077 823.40936 198.49577Q822.3 199.90202 820.39374 199.90202Q818.83124 199.90202 817.84686 199.02702Q816.8625 198.1364 816.72186 196.6989ZM825.9875 190.99577Q825.9875 189.7614 826.59686 188.90202Q827.22186 188.04265 828.39374 188.04265Q829.47186 188.04265 830.175 188.8239Q830.8781 189.58952 830.8781 191.0739Q830.8781 192.52702 830.15936 193.3239Q829.45624 194.10515 828.40936 194.10515Q827.3625 194.10515 826.675 193.33952Q825.9875 192.55827 825.9875 190.99577ZM828.425 189.0114Q827.90936 189.0114 827.55 189.46452Q827.20624 189.91765 827.20624 191.1364Q827.20624 192.23015 827.55 192.68327Q827.90936 193.1364 828.425 193.1364Q828.95624 193.1364 829.3 192.68327Q829.65936 192.23015 829.65936 191.02702Q829.65936 189.91765 829.3 189.46452Q828.95624 189.0114 828.425 189.0114ZM828.4406 200.12077L834.70624 188.04265L835.84686 188.04265L829.59686 200.12077L828.4406 200.12077ZM833.39374 197.0114Q833.39374 195.77702 834.0031 194.91765Q834.6281 194.05827 835.8 194.05827Q836.8781 194.05827 837.58124 194.83952Q838.3 195.60515 838.3 197.08952Q838.3 198.54265 837.58124 199.33952Q836.8625 200.12077 835.8156 200.12077Q834.76874 200.12077 834.08124 199.33952Q833.39374 198.55827 833.39374 197.0114ZM835.84686 195.02702Q835.3156 195.02702 834.95624 195.48015Q834.6125 195.93327 834.6125 197.15202Q834.6125 198.24577 834.95624 198.6989Q835.3156 199.15202 835.83124 199.15202Q836.3781 199.15202 836.72186 198.6989Q837.0656 198.24577 837.0656 197.04265Q837.0656 195.93327 836.70624 195.48015Q836.3625 195.02702 835.84686 195.02702Z" fill-rule="nonzero"/><path stroke="#757575" stroke-width="1.0" stroke-linecap="butt" d="M839.05 183.1989L681.55 183.1989L646.65076 183.1989" fill-rule="nonzero"/><path fill="#9e9e9e" d="M648.65076 183.1989C648.65076 182.09433 647.7553 181.1989 646.65076 181.1989C645.5462 181.1989 644.65076 182.09433 644.65076 183.1989C644.65076 184.30347 645.5462 185.1989 646.65076 185.1989C647.7553 185.1989 648.65076 184.30347 648.65076 183.1989" fill-rule="nonzero"/><path fill="#ffffff" d="M778.76874 299.57666L780.20624 299.45166Q780.3 300.31104 780.675 300.87354Q781.05 301.4204 781.83124 301.76416Q782.6125 302.0923 783.58124 302.0923Q784.45624 302.0923 785.1125 301.8423Q785.78436 301.57666 786.09686 301.13916Q786.425 300.68604 786.425 300.1548Q786.425 299.6079 786.1125 299.2173Q785.8 298.81104 785.08124 298.5298Q784.6281 298.3579 783.05 297.9829Q781.47186 297.5923 780.83124 297.26416Q780.01874 296.82666 779.6125 296.20166Q779.20624 295.56104 779.20624 294.76416Q779.20624 293.9048 779.6906 293.1548Q780.1906 292.38916 781.1281 291.99854Q782.08124 291.6079 783.2375 291.6079Q784.51874 291.6079 785.4875 292.0298Q786.45624 292.43604 786.97186 293.2329Q787.5031 294.0298 787.55 295.0298L786.09686 295.13916Q785.97186 294.06104 785.3 293.51416Q784.6281 292.95166 783.3 292.95166Q781.925 292.95166 781.3 293.45166Q780.675 293.95166 780.675 294.6704Q780.675 295.2798 781.1125 295.68604Q781.55 296.07666 783.39374 296.49854Q785.2531 296.9204 785.9406 297.2329Q786.9406 297.68604 787.40936 298.4048Q787.89374 299.1079 787.89374 300.0298Q787.89374 300.93604 787.3625 301.74854Q786.84686 302.56104 785.8625 303.01416Q784.8781 303.4673 783.65936 303.4673Q782.09686 303.4673 781.05 303.01416Q780.0031 302.5454 779.39374 301.63916Q778.8 300.7329 778.76874 299.57666ZM795.78436 300.5923L797.2375 300.76416Q796.89374 302.0454 795.95624 302.74854Q795.03436 303.45166 793.59686 303.45166Q791.76874 303.45166 790.70624 302.32666Q789.64374 301.20166 789.64374 299.18604Q789.64374 297.0923 790.72186 295.93604Q791.8 294.7798 793.51874 294.7798Q795.175 294.7798 796.22186 295.9204Q797.28436 297.0454 797.28436 299.0923Q797.28436 299.2173 797.28436 299.4673L791.09686 299.4673Q791.175 300.8423 791.8625 301.57666Q792.5656 302.2954 793.59686 302.2954Q794.3781 302.2954 794.925 301.88916Q795.47186 301.4829 795.78436 300.5923ZM791.175 298.31104L795.8 298.31104Q795.70624 297.26416 795.26874 296.74854Q794.59686 295.93604 793.53436 295.93604Q792.5656 295.93604 791.89374 296.5923Q791.2375 297.2329 791.175 298.31104ZM799.09686 303.26416L799.09686 294.9673L800.3625 294.9673L800.3625 296.2173Q800.84686 295.3423 801.2531 295.06104Q801.65936 294.7798 802.15936 294.7798Q802.8625 294.7798 803.59686 295.2329L803.1125 296.5298Q802.59686 296.2329 802.08124 296.2329Q801.6281 296.2329 801.2531 296.51416Q800.89374 296.7798 800.7375 297.2798Q800.5031 298.0298 800.5031 298.9204L800.5031 303.26416L799.09686 303.26416ZM804.1125 293.4204L804.1125 291.81104L805.51874 291.81104L805.51874 293.4204L804.1125 293.4204ZM804.1125 303.26416L804.1125 294.9673L805.51874 294.9673L805.51874 303.26416L804.1125 303.26416ZM813.78436 300.5923L815.2375 300.76416Q814.89374 302.0454 813.95624 302.74854Q813.03436 303.45166 811.59686 303.45166Q809.76874 303.45166 808.70624 302.32666Q807.64374 301.20166 807.64374 299.18604Q807.64374 297.0923 808.72186 295.93604Q809.8 294.7798 811.51874 294.7798Q813.175 294.7798 814.22186 295.9204Q815.28436 297.0454 815.28436 299.0923Q815.28436 299.2173 815.28436 299.4673L809.09686 299.4673Q809.175 300.8423 809.8625 301.57666Q810.5656 302.2954 811.59686 302.2954Q812.3781 302.2954 812.925 301.88916Q813.47186 301.4829 813.78436 300.5923ZM809.175 298.31104L813.8 298.31104Q813.70624 297.26416 813.26874 296.74854Q812.59686 295.93604 811.53436 295.93604Q810.5656 295.93604 809.89374 296.5923Q809.2375 297.2329 809.175 298.31104ZM816.55 300.7798L817.9406 300.56104Q818.05 301.4048 818.58124 301.8579Q819.1281 302.2954 820.08124 302.2954Q821.05 302.2954 821.51874 301.9048Q821.9875 301.49854 821.9875 300.9673Q821.9875 300.49854 821.58124 300.2173Q821.28436 300.0298 820.14374 299.74854Q818.59686 299.3579 817.9875 299.07666Q817.39374 298.7798 817.08124 298.2798Q816.78436 297.7798 816.78436 297.1704Q816.78436 296.6079 817.03436 296.13916Q817.28436 295.6704 817.72186 295.3579Q818.05 295.1079 818.6125 294.95166Q819.1906 294.7798 819.83124 294.7798Q820.8156 294.7798 821.55 295.06104Q822.28436 295.3423 822.6281 295.82666Q822.9875 296.2954 823.1281 297.1079L821.7531 297.2954Q821.65936 296.6548 821.20624 296.2954Q820.7531 295.93604 819.9406 295.93604Q818.97186 295.93604 818.55 296.26416Q818.14374 296.57666 818.14374 296.99854Q818.14374 297.2798 818.3156 297.49854Q818.4875 297.7173 818.84686 297.87354Q819.0656 297.95166 820.09686 298.2329Q821.58124 298.62354 822.175 298.88916Q822.76874 299.13916 823.09686 299.62354Q823.4406 300.1079 823.4406 300.82666Q823.4406 301.5298 823.01874 302.1548Q822.6125 302.76416 821.83124 303.1079Q821.0656 303.45166 820.09686 303.45166Q818.47186 303.45166 817.6281 302.7798Q816.78436 302.1079 816.55 300.7798ZM829.22186 303.26416L829.22186 291.81104L833.51874 291.81104Q834.83124 291.81104 835.6281 292.1548Q836.425 292.49854 836.8625 293.2329Q837.3156 293.95166 837.3156 294.7329Q837.3156 295.4673 836.90936 296.12354Q836.51874 296.76416 835.72186 297.1704Q836.7531 297.4673 837.3156 298.20166Q837.8781 298.93604 837.8781 299.93604Q837.8781 300.74854 837.53436 301.43604Q837.1906 302.12354 836.6906 302.49854Q836.1906 302.87354 835.4406 303.07666Q834.6906 303.26416 833.59686 303.26416L829.22186 303.26416ZM830.7375 296.62354L833.22186 296.62354Q834.22186 296.62354 834.65936 296.4829Q835.2375 296.31104 835.53436 295.9204Q835.83124 295.51416 835.83124 294.9204Q835.83124 294.3423 835.55 293.9204Q835.28436 293.4829 834.76874 293.32666Q834.26874 293.1548 833.03436 293.1548L830.7375 293.1548L830.7375 296.62354ZM830.7375 301.9048L833.59686 301.9048Q834.33124 301.9048 834.6281 301.8579Q835.14374 301.76416 835.4875 301.5454Q835.84686 301.32666 836.0656 300.9048Q836.3 300.4829 836.3 299.93604Q836.3 299.2954 835.97186 298.82666Q835.64374 298.3579 835.0656 298.1704Q834.4875 297.9673 833.39374 297.9673L830.7375 297.9673L830.7375 301.9048Z" fill-rule="nonzero"/><path fill="#9e9e9e" d="M803.72186 322.2329L805.1281 322.0454Q805.3781 323.24854 805.95624 323.7798Q806.53436 324.2954 807.3781 324.2954Q808.3625 324.2954 809.05 323.6079Q809.7375 322.9204 809.7375 321.9048Q809.7375 320.93604 809.09686 320.31104Q808.47186 319.68604 807.4875 319.68604Q807.09686 319.68604 806.5031 319.8423L806.65936 318.6079Q806.8 318.62354 806.8781 318.62354Q807.78436 318.62354 808.5031 318.1548Q809.22186 317.68604 809.22186 316.70166Q809.22186 315.93604 808.6906 315.43604Q808.175 314.9204 807.34686 314.9204Q806.51874 314.9204 805.97186 315.43604Q805.425 315.95166 805.26874 316.9829L803.8625 316.7329Q804.1281 315.31104 805.03436 314.5454Q805.95624 313.76416 807.3156 313.76416Q808.2531 313.76416 809.03436 314.1704Q809.83124 314.56104 810.2375 315.26416Q810.65936 315.95166 810.65936 316.7329Q810.65936 317.4829 810.2531 318.0923Q809.8625 318.70166 809.08124 319.06104Q810.09686 319.2954 810.65936 320.0298Q811.22186 320.76416 811.22186 321.87354Q811.22186 323.37354 810.1281 324.4204Q809.03436 325.4673 807.3625 325.4673Q805.8625 325.4673 804.8625 324.57666Q803.8625 323.6704 803.72186 322.2329ZM813.5031 325.26416L813.5031 323.6548L815.1125 323.6548L815.1125 325.26416L813.5031 325.26416ZM824.1125 323.9048L824.1125 325.26416L816.53436 325.26416Q816.51874 324.74854 816.70624 324.2798Q816.9875 323.51416 817.6281 322.76416Q818.26874 322.01416 819.47186 321.0298Q821.33124 319.49854 821.9875 318.6079Q822.64374 317.70166 822.64374 316.9048Q822.64374 316.07666 822.05 315.49854Q821.45624 314.9204 820.4875 314.9204Q819.47186 314.9204 818.8625 315.5298Q818.2531 316.13916 818.2531 317.2173L816.8 317.07666Q816.95624 315.45166 817.925 314.6079Q818.89374 313.76416 820.51874 313.76416Q822.175 313.76416 823.1281 314.68604Q824.09686 315.5923 824.09686 316.93604Q824.09686 317.62354 823.8156 318.2954Q823.53436 318.95166 822.8781 319.68604Q822.22186 320.4204 820.70624 321.70166Q819.4406 322.76416 819.08124 323.1548Q818.72186 323.5298 818.4875 323.9048L824.1125 323.9048ZM825.9875 316.56104Q825.9875 315.32666 826.59686 314.4673Q827.22186 313.6079 828.39374 313.6079Q829.47186 313.6079 830.175 314.38916Q830.8781 315.1548 830.8781 316.63916Q830.8781 318.0923 830.15936 318.88916Q829.45624 319.6704 828.40936 319.6704Q827.3625 319.6704 826.675 318.9048Q825.9875 318.12354 825.9875 316.56104ZM828.425 314.57666Q827.90936 314.57666 827.55 315.0298Q827.20624 315.4829 827.20624 316.70166Q827.20624 317.7954 827.55 318.24854Q827.90936 318.70166 828.425 318.70166Q828.95624 318.70166 829.3 318.24854Q829.65936 317.7954 829.65936 316.5923Q829.65936 315.4829 829.3 315.0298Q828.95624 314.57666 828.425 314.57666ZM828.4406 325.68604L834.70624 313.6079L835.84686 313.6079L829.59686 325.68604L828.4406 325.68604ZM833.39374 322.57666Q833.39374 321.3423 834.0031 320.4829Q834.6281 319.62354 835.8 319.62354Q836.8781 319.62354 837.58124 320.4048Q838.3 321.1704 838.3 322.6548Q838.3 324.1079 837.58124 324.9048Q836.8625 325.68604 835.8156 325.68604Q834.76874 325.68604 834.08124 324.9048Q833.39374 324.12354 833.39374 322.57666ZM835.84686 320.5923Q835.3156 320.5923 834.95624 321.0454Q834.6125 321.49854 834.6125 322.7173Q834.6125 323.81104 834.95624 324.26416Q835.3156 324.7173 835.83124 324.7173Q836.3781 324.7173 836.72186 324.26416Q837.0656 323.81104 837.0656 322.6079Q837.0656 321.49854 836.70624 321.0454Q836.3625 320.5923 835.84686 320.5923Z" fill-rule="nonzero"/><path stroke="#757575" stroke-width="1.0" stroke-linecap="butt" d="M839.05 308.76416L681.55 308.76416L660.05255 308.76416" fill-rule="nonzero"/><path fill="#9e9e9e" d="M662.05255 308.76416C662.05255 307.6596 661.1571 306.76416 660.05255 306.76416C658.94794 306.76416 658.05255 307.6596 658.05255 308.76416C658.05255 309.86874 658.94794 310.76416 660.05255 310.76416C661.1571 310.76416 662.05255 309.86874 662.05255 308.76416" fill-rule="nonzero"/><path fill="#ffffff" d="M727.76874 359.4548L729.20624 359.3298Q729.3 360.18918 729.675 360.75168Q730.05 361.29855 730.83124 361.6423Q731.6125 361.97043 732.58124 361.97043Q733.45624 361.97043 734.1125 361.72043Q734.78436 361.4548 735.09686 361.0173Q735.425 360.56418 735.425 360.03293Q735.425 359.48605 735.1125 359.09543Q734.8 358.68918 734.08124 358.40793Q733.6281 358.23605 732.05 357.86105Q730.47186 357.47043 729.83124 357.1423Q729.01874 356.7048 728.6125 356.0798Q728.20624 355.43918 728.20624 354.6423Q728.20624 353.78293 728.6906 353.03293Q729.1906 352.2673 730.1281 351.87668Q731.08124 351.48605 732.2375 351.48605Q733.51874 351.48605 734.4875 351.90793Q735.45624 352.31418 735.97186 353.11105Q736.5031 353.90793 736.55 354.90793L735.09686 355.0173Q734.97186 353.93918 734.3 353.3923Q733.6281 352.8298 732.3 352.8298Q730.925 352.8298 730.3 353.3298Q729.675 353.8298 729.675 354.54855Q729.675 355.15793 730.1125 355.56418Q730.55 355.9548 732.39374 356.37668Q734.2531 356.79855 734.9406 357.11105Q735.9406 357.56418 736.40936 358.28293Q736.89374 358.98605 736.89374 359.90793Q736.89374 360.81418 736.3625 361.62668Q735.84686 362.43918 734.8625 362.8923Q733.8781 363.34543 732.65936 363.34543Q731.09686 363.34543 730.05 362.8923Q729.0031 362.42355 728.39374 361.5173Q727.8 360.61105 727.76874 359.4548ZM742.175 361.87668L742.3781 363.12668Q741.78436 363.25168 741.3156 363.25168Q740.55 363.25168 740.1281 363.0173Q739.70624 362.7673 739.53436 362.37668Q739.3625 361.97043 739.3625 360.7048L739.3625 355.93918L738.33124 355.93918L738.33124 354.84543L739.3625 354.84543L739.3625 352.78293L740.76874 351.93918L740.76874 354.84543L742.175 354.84543L742.175 355.93918L740.76874 355.93918L740.76874 360.78293Q740.76874 361.3923 740.83124 361.56418Q740.90936 361.73605 741.08124 361.84543Q741.2531 361.93918 741.5656 361.93918Q741.8 361.93918 742.175 361.87668ZM743.09686 363.1423L743.09686 354.84543L744.3625 354.84543L744.3625 356.09543Q744.84686 355.22043 745.2531 354.93918Q745.65936 354.65793 746.15936 354.65793Q746.8625 354.65793 747.59686 355.11105L747.1125 356.40793Q746.59686 356.11105 746.08124 356.11105Q745.6281 356.11105 745.2531 356.3923Q744.89374 356.65793 744.7375 357.15793Q744.5031 357.90793 744.5031 358.79855L744.5031 363.1423L743.09686 363.1423ZM753.51874 362.11105Q752.7375 362.78293 752.01874 363.06418Q751.3 363.3298 750.47186 363.3298Q749.09686 363.3298 748.3625 362.65793Q747.6281 361.98605 747.6281 360.9548Q747.6281 360.34543 747.90936 359.84543Q748.1906 359.3298 748.6281 359.03293Q749.08124 358.72043 749.64374 358.56418Q750.0656 358.4548 750.89374 358.36105Q752.59686 358.15793 753.40936 357.87668Q753.40936 357.5798 753.40936 357.50168Q753.40936 356.6423 753.01874 356.29855Q752.47186 355.81418 751.40936 355.81418Q750.425 355.81418 749.9406 356.17355Q749.47186 356.5173 749.2531 357.3923L747.8781 357.2048Q748.0656 356.3298 748.4875 355.78293Q748.925 355.23605 749.7375 354.9548Q750.55 354.65793 751.6125 354.65793Q752.675 354.65793 753.33124 354.90793Q754.0031 355.15793 754.3156 355.53293Q754.6281 355.90793 754.7531 356.48605Q754.83124 356.84543 754.83124 357.78293L754.83124 359.65793Q754.83124 361.62668 754.90936 362.1423Q755.0031 362.65793 755.26874 363.1423L753.8 363.1423Q753.58124 362.7048 753.51874 362.11105ZM753.40936 358.97043Q752.64374 359.28293 751.1125 359.50168Q750.2375 359.62668 749.8781 359.78293Q749.51874 359.93918 749.3156 360.25168Q749.1281 360.54855 749.1281 360.90793Q749.1281 361.47043 749.55 361.84543Q749.9875 362.22043 750.8 362.22043Q751.6125 362.22043 752.2375 361.87668Q752.8781 361.5173 753.175 360.8923Q753.40936 360.42355 753.40936 359.48605L753.40936 358.97043ZM760.175 361.87668L760.3781 363.12668Q759.78436 363.25168 759.3156 363.25168Q758.55 363.25168 758.1281 363.0173Q757.70624 362.7673 757.53436 362.37668Q757.3625 361.97043 757.3625 360.7048L757.3625 355.93918L756.33124 355.93918L756.33124 354.84543L757.3625 354.84543L757.3625 352.78293L758.76874 351.93918L758.76874 354.84543L760.175 354.84543L760.175 355.93918L758.76874 355.93918L758.76874 360.78293Q758.76874 361.3923 758.83124 361.56418Q758.90936 361.73605 759.08124 361.84543Q759.2531 361.93918 759.5656 361.93918Q759.8 361.93918 760.175 361.87668ZM766.78436 360.47043L768.2375 360.6423Q767.89374 361.92355 766.95624 362.62668Q766.03436 363.3298 764.59686 363.3298Q762.76874 363.3298 761.70624 362.2048Q760.64374 361.0798 760.64374 359.06418Q760.64374 356.97043 761.72186 355.81418Q762.8 354.65793 764.51874 354.65793Q766.175 354.65793 767.22186 355.79855Q768.28436 356.92355 768.28436 358.97043Q768.28436 359.09543 768.28436 359.34543L762.09686 359.34543Q762.175 360.72043 762.8625 361.4548Q763.5656 362.17355 764.59686 362.17355Q765.3781 362.17355 765.925 361.7673Q766.47186 361.36105 766.78436 360.47043ZM762.175 358.18918L766.8 358.18918Q766.70624 357.1423 766.26874 356.62668Q765.59686 355.81418 764.53436 355.81418Q763.5656 355.81418 762.89374 356.47043Q762.2375 357.11105 762.175 358.18918ZM769.84686 363.8298L771.22186 364.03293Q771.3 364.67355 771.6906 364.9548Q772.22186 365.34543 773.1281 365.34543Q774.09686 365.34543 774.6281 364.9548Q775.15936 364.56418 775.34686 363.86105Q775.45624 363.43918 775.45624 362.04855Q774.53436 363.1423 773.15936 363.1423Q771.4406 363.1423 770.5031 361.90793Q769.5656 360.67355 769.5656 358.93918Q769.5656 357.75168 769.9875 356.75168Q770.425 355.75168 771.2375 355.2048Q772.0656 354.65793 773.15936 354.65793Q774.6281 354.65793 775.58124 355.84543L775.58124 354.84543L776.8781 354.84543L776.8781 362.0173Q776.8781 363.9548 776.4875 364.7673Q776.09686 365.5798 775.2375 366.04855Q774.3781 366.5173 773.1281 366.5173Q771.64374 366.5173 770.72186 365.84543Q769.8156 365.17355 769.84686 363.8298ZM771.01874 358.84543Q771.01874 360.47043 771.65936 361.22043Q772.3156 361.97043 773.28436 361.97043Q774.2531 361.97043 774.90936 361.23605Q775.5656 360.48605 775.5656 358.8923Q775.5656 357.36105 774.89374 356.59543Q774.22186 355.81418 773.26874 355.81418Q772.33124 355.81418 771.675 356.5798Q771.01874 357.34543 771.01874 358.84543ZM779.1125 353.29855L779.1125 351.68918L780.51874 351.68918L780.51874 353.29855L779.1125 353.29855ZM779.1125 363.1423L779.1125 354.84543L780.51874 354.84543L780.51874 363.1423L779.1125 363.1423ZM788.51874 360.09543L789.90936 360.28293Q789.675 361.7048 788.7375 362.5173Q787.8156 363.3298 786.45624 363.3298Q784.7531 363.3298 783.70624 362.22043Q782.675 361.09543 782.675 359.0173Q782.675 357.67355 783.1125 356.67355Q783.5656 355.65793 784.47186 355.15793Q785.39374 354.65793 786.45624 354.65793Q787.8156 354.65793 788.675 355.34543Q789.53436 356.0173 789.76874 357.28293L788.40936 357.48605Q788.20624 356.65793 787.70624 356.23605Q787.22186 355.81418 786.51874 355.81418Q785.45624 355.81418 784.78436 356.5798Q784.1281 357.3298 784.1281 358.98605Q784.1281 360.65793 784.76874 361.42355Q785.40936 362.17355 786.4406 362.17355Q787.26874 362.17355 787.8156 361.67355Q788.3781 361.15793 788.51874 360.09543ZM795.3156 363.1423L795.3156 351.68918L800.39374 351.68918Q801.925 351.68918 802.72186 352.00168Q803.51874 352.29855 803.9875 353.0798Q804.47186 353.86105 804.47186 354.81418Q804.47186 356.03293 803.675 356.87668Q802.89374 357.7048 801.2375 357.92355Q801.84686 358.22043 802.15936 358.50168Q802.8156 359.11105 803.40936 360.0173L805.40936 363.1423L803.5031 363.1423L801.9875 360.75168Q801.3156 359.72043 800.8781 359.17355Q800.45624 358.62668 800.1125 358.40793Q799.78436 358.18918 799.425 358.11105Q799.175 358.04855 798.58124 358.04855L796.83124 358.04855L796.83124 363.1423L795.3156 363.1423ZM796.83124 356.73605L800.08124 356.73605Q801.1281 356.73605 801.70624 356.53293Q802.3 356.31418 802.59686 355.84543Q802.90936 355.36105 802.90936 354.81418Q802.90936 354.00168 802.3156 353.48605Q801.72186 352.9548 800.45624 352.9548L796.83124 352.9548L796.83124 356.73605ZM805.58124 358.98605Q805.58124 356.68918 806.8625 355.5798Q807.9406 354.65793 809.47186 354.65793Q811.1906 354.65793 812.26874 355.78293Q813.3625 356.8923 813.3625 358.87668Q813.3625 360.47043 812.8781 361.3923Q812.39374 362.31418 811.47186 362.8298Q810.5656 363.3298 809.47186 363.3298Q807.7375 363.3298 806.65936 362.22043Q805.58124 361.09543 805.58124 358.98605ZM807.03436 358.98605Q807.03436 360.5798 807.72186 361.37668Q808.425 362.17355 809.47186 362.17355Q810.51874 362.17355 811.20624 361.37668Q811.90936 360.5798 811.90936 358.93918Q811.90936 357.40793 811.20624 356.61105Q810.51874 355.81418 809.47186 355.81418Q808.425 355.81418 807.72186 356.61105Q807.03436 357.3923 807.03436 358.98605ZM820.55 363.1423L820.55 361.92355Q819.58124 363.3298 817.90936 363.3298Q817.175 363.3298 816.53436 363.04855Q815.90936 362.7673 815.59686 362.34543Q815.28436 361.90793 815.15936 361.29855Q815.08124 360.87668 815.08124 359.98605L815.08124 354.84543L816.4875 354.84543L816.4875 359.43918Q816.4875 360.54855 816.5656 360.92355Q816.70624 361.48605 817.1281 361.79855Q817.5656 362.11105 818.1906 362.11105Q818.83124 362.11105 819.3781 361.79855Q819.9406 361.47043 820.15936 360.90793Q820.39374 360.34543 820.39374 359.28293L820.39374 354.84543L821.8 354.84543L821.8 363.1423L820.55 363.1423ZM823.1125 363.1423L823.1125 354.84543L824.3781 354.84543L824.3781 356.0173Q825.28436 354.65793 827.01874 354.65793Q827.76874 354.65793 828.39374 354.92355Q829.01874 355.18918 829.33124 355.62668Q829.64374 356.06418 829.76874 356.67355Q829.84686 357.06418 829.84686 358.03293L829.84686 363.1423L828.4406 363.1423L828.4406 358.09543Q828.4406 357.23605 828.26874 356.81418Q828.1125 356.37668 827.6906 356.12668Q827.28436 355.87668 826.72186 355.87668Q825.8156 355.87668 825.15936 356.4548Q824.51874 357.0173 824.51874 358.61105L824.51874 363.1423L823.1125 363.1423ZM836.4875 363.1423L836.4875 362.09543Q835.70624 363.3298 834.175 363.3298Q833.175 363.3298 832.34686 362.78293Q831.51874 362.23605 831.05 361.25168Q830.59686 360.2673 830.59686 359.00168Q830.59686 357.75168 831.0031 356.75168Q831.425 355.73605 832.2531 355.2048Q833.08124 354.65793 834.1125 354.65793Q834.8625 354.65793 835.4406 354.97043Q836.03436 355.28293 836.39374 355.79855L836.39374 351.68918L837.8 351.68918L837.8 363.1423L836.4875 363.1423ZM832.05 359.00168Q832.05 360.59543 832.72186 361.3923Q833.39374 362.17355 834.3 362.17355Q835.22186 362.17355 835.8625 361.42355Q836.51874 360.65793 836.51874 359.11105Q836.51874 357.40793 835.8625 356.61105Q835.20624 355.81418 834.2375 355.81418Q833.3 355.81418 832.675 356.5798Q832.05 357.34543 832.05 359.00168Z" fill-rule="nonzero"/><path fill="#9e9e9e" d="M803.72186 382.1423L805.1906 382.0173Q805.3625 383.09543 805.95624 383.6423Q806.55 384.17355 807.39374 384.17355Q808.40936 384.17355 809.1125 383.40793Q809.8156 382.6423 809.8156 381.37668Q809.8156 380.17355 809.14374 379.48605Q808.47186 378.78293 807.3781 378.78293Q806.6906 378.78293 806.14374 379.09543Q805.59686 379.40793 805.28436 379.8923L803.97186 379.72043L805.08124 373.84543L810.76874 373.84543L810.76874 375.18918L806.20624 375.18918L805.58124 378.2673Q806.6125 377.54855 807.7531 377.54855Q809.2531 377.54855 810.28436 378.59543Q811.3156 379.62668 811.3156 381.25168Q811.3156 382.81418 810.40936 383.93918Q809.3 385.34543 807.39374 385.34543Q805.83124 385.34543 804.84686 384.47043Q803.8625 383.5798 803.72186 382.1423ZM813.5031 385.1423L813.5031 383.53293L815.1125 383.53293L815.1125 385.1423L813.5031 385.1423ZM816.72186 382.1423L818.1906 382.0173Q818.3625 383.09543 818.95624 383.6423Q819.55 384.17355 820.39374 384.17355Q821.40936 384.17355 822.1125 383.40793Q822.8156 382.6423 822.8156 381.37668Q822.8156 380.17355 822.14374 379.48605Q821.47186 378.78293 820.3781 378.78293Q819.6906 378.78293 819.14374 379.09543Q818.59686 379.40793 818.28436 379.8923L816.97186 379.72043L818.08124 373.84543L823.76874 373.84543L823.76874 375.18918L819.20624 375.18918L818.58124 378.2673Q819.6125 377.54855 820.7531 377.54855Q822.2531 377.54855 823.28436 378.59543Q824.3156 379.62668 824.3156 381.25168Q824.3156 382.81418 823.40936 383.93918Q822.3 385.34543 820.39374 385.34543Q818.83124 385.34543 817.84686 384.47043Q816.8625 383.5798 816.72186 382.1423ZM825.9875 376.43918Q825.9875 375.2048 826.59686 374.34543Q827.22186 373.48605 828.39374 373.48605Q829.47186 373.48605 830.175 374.2673Q830.8781 375.03293 830.8781 376.5173Q830.8781 377.97043 830.15936 378.7673Q829.45624 379.54855 828.40936 379.54855Q827.3625 379.54855 826.675 378.78293Q825.9875 378.00168 825.9875 376.43918ZM828.425 374.4548Q827.90936 374.4548 827.55 374.90793Q827.20624 375.36105 827.20624 376.5798Q827.20624 377.67355 827.55 378.12668Q827.90936 378.5798 828.425 378.5798Q828.95624 378.5798 829.3 378.12668Q829.65936 377.67355 829.65936 376.47043Q829.65936 375.36105 829.3 374.90793Q828.95624 374.4548 828.425 374.4548ZM828.4406 385.56418L834.70624 373.48605L835.84686 373.48605L829.59686 385.56418L828.4406 385.56418ZM833.39374 382.4548Q833.39374 381.22043 834.0031 380.36105Q834.6281 379.50168 835.8 379.50168Q836.8781 379.50168 837.58124 380.28293Q838.3 381.04855 838.3 382.53293Q838.3 383.98605 837.58124 384.78293Q836.8625 385.56418 835.8156 385.56418Q834.76874 385.56418 834.08124 384.78293Q833.39374 384.00168 833.39374 382.4548ZM835.84686 380.47043Q835.3156 380.47043 834.95624 380.92355Q834.6125 381.37668 834.6125 382.59543Q834.6125 383.68918 834.95624 384.1423Q835.3156 384.59543 835.83124 384.59543Q836.3781 384.59543 836.72186 384.1423Q837.0656 383.68918 837.0656 382.48605Q837.0656 381.37668 836.70624 380.92355Q836.3625 380.47043 835.84686 380.47043Z" fill-rule="nonzero"/><path stroke="#757575" stroke-width="1.0" stroke-linecap="butt" d="M839.05 368.6423L681.55 368.6423L641.0032 368.6423" fill-rule="nonzero"/><path fill="#9e9e9e" d="M643.0032 368.6423C643.0032 367.53775 642.1078 366.6423 641.0032 366.6423C639.8986 366.6423 639.0032 367.53775 639.0032 368.6423C639.0032 369.7469 639.8986 370.6423 641.0032 370.6423C642.1078 370.6423 643.0032 369.7469 643.0032 368.6423" fill-rule="nonzero"/><path fill="#ffffff" d="M723.20624 468.213L723.20624 458.10364L719.425 458.10364L719.425 456.7599L728.5031 456.7599L728.5031 458.10364L724.72186 458.10364L724.72186 468.213L723.20624 468.213ZM734.78436 465.54114L736.2375 465.713Q735.89374 466.99426 734.95624 467.6974Q734.03436 468.4005 732.59686 468.4005Q730.76874 468.4005 729.70624 467.2755Q728.64374 466.1505 728.64374 464.1349Q728.64374 462.04114 729.72186 460.8849Q730.8 459.72864 732.51874 459.72864Q734.175 459.72864 735.22186 460.86926Q736.28436 461.99426 736.28436 464.04114Q736.28436 464.16614 736.28436 464.41614L730.09686 464.41614Q730.175 465.79114 730.8625 466.5255Q731.5656 467.24426 732.59686 467.24426Q733.3781 467.24426 733.925 466.838Q734.47186 466.43176 734.78436 465.54114ZM730.175 463.2599L734.8 463.2599Q734.70624 462.213 734.26874 461.6974Q733.59686 460.8849 732.53436 460.8849Q731.5656 460.8849 730.89374 461.54114Q730.2375 462.18176 730.175 463.2599ZM743.51874 467.18176Q742.7375 467.85364 742.01874 468.1349Q741.3 468.4005 740.47186 468.4005Q739.09686 468.4005 738.3625 467.72864Q737.6281 467.05676 737.6281 466.0255Q737.6281 465.41614 737.90936 464.91614Q738.1906 464.4005 738.6281 464.10364Q739.08124 463.79114 739.64374 463.6349Q740.0656 463.5255 740.89374 463.43176Q742.59686 463.22864 743.40936 462.9474Q743.40936 462.6505 743.40936 462.5724Q743.40936 461.713 743.01874 461.36926Q742.47186 460.8849 741.40936 460.8849Q740.425 460.8849 739.9406 461.24426Q739.47186 461.588 739.2531 462.463L737.8781 462.2755Q738.0656 461.4005 738.4875 460.85364Q738.925 460.30676 739.7375 460.0255Q740.55 459.72864 741.6125 459.72864Q742.675 459.72864 743.33124 459.97864Q744.0031 460.22864 744.3156 460.60364Q744.6281 460.97864 744.7531 461.55676Q744.83124 461.91614 744.83124 462.85364L744.83124 464.72864Q744.83124 466.6974 744.90936 467.213Q745.0031 467.72864 745.26874 468.213L743.8 468.213Q743.58124 467.7755 743.51874 467.18176ZM743.40936 464.04114Q742.64374 464.35364 741.1125 464.5724Q740.2375 464.6974 739.8781 464.85364Q739.51874 465.0099 739.3156 465.3224Q739.1281 465.61926 739.1281 465.97864Q739.1281 466.54114 739.55 466.91614Q739.9875 467.29114 740.8 467.29114Q741.6125 467.29114 742.2375 466.9474Q742.8781 466.588 743.175 465.963Q743.40936 465.49426 743.40936 464.55676L743.40936 464.04114ZM747.1125 468.213L747.1125 459.91614L748.3625 459.91614L748.3625 461.0724Q748.7531 460.463 749.39374 460.10364Q750.05 459.72864 750.8781 459.72864Q751.8 459.72864 752.39374 460.11926Q752.9875 460.49426 753.22186 461.18176Q754.20624 459.72864 755.78436 459.72864Q757.01874 459.72864 757.675 460.41614Q758.34686 461.088 758.34686 462.5099L758.34686 468.213L756.95624 468.213L756.95624 462.97864Q756.95624 462.1349 756.8156 461.7755Q756.675 461.4005 756.3156 461.18176Q755.95624 460.9474 755.47186 460.9474Q754.59686 460.9474 754.01874 461.5255Q753.4406 462.10364 753.4406 463.3849L753.4406 468.213L752.03436 468.213L752.03436 462.8224Q752.03436 461.8849 751.6906 461.41614Q751.34686 460.9474 750.5656 460.9474Q749.97186 460.9474 749.47186 461.2599Q748.97186 461.5724 748.7375 462.18176Q748.51874 462.7755 748.51874 463.9005L748.51874 468.213L747.1125 468.213ZM770.65936 466.85364Q769.95624 467.6349 769.1281 468.0255Q768.3156 468.41614 767.3625 468.41614Q765.6125 468.41614 764.58124 467.213Q763.7375 466.24426 763.7375 465.05676Q763.7375 463.99426 764.425 463.1349Q765.1125 462.2755 766.47186 461.6349Q765.6906 460.74426 765.425 460.1974Q765.175 459.6349 765.175 459.11926Q765.175 458.088 765.9875 457.3224Q766.8 456.55676 768.01874 456.55676Q769.1906 456.55676 769.9406 457.2755Q770.6906 457.99426 770.6906 459.0099Q770.6906 460.6349 768.51874 461.79114L770.58124 464.41614Q770.925 463.72864 771.1281 462.8224L772.58124 463.1349Q772.20624 464.6349 771.5656 465.60364Q772.3625 466.6505 773.3625 467.35364L772.40936 468.47864Q771.5656 467.93176 770.65936 466.85364ZM767.8 460.8849Q768.70624 460.35364 768.97186 459.9474Q769.2531 459.54114 769.2531 459.04114Q769.2531 458.463 768.8781 458.088Q768.5031 457.713 767.95624 457.713Q767.3781 457.713 767.0031 458.088Q766.6281 458.4474 766.6281 458.97864Q766.6281 459.24426 766.7531 459.54114Q766.89374 459.838 767.175 460.16614L767.8 460.8849ZM769.76874 465.74426L767.1906 462.55676Q766.05 463.22864 765.64374 463.8224Q765.2531 464.4005 765.2531 464.963Q765.2531 465.66614 765.8 466.41614Q766.3625 467.16614 767.3781 467.16614Q768.01874 467.16614 768.6906 466.7755Q769.3625 466.36926 769.76874 465.74426ZM778.01874 468.213L782.425 456.7599L784.0656 456.7599L788.7531 468.213L787.01874 468.213L785.6906 464.74426L780.89374 464.74426L779.64374 468.213L778.01874 468.213ZM781.33124 463.5099L785.22186 463.5099L784.01874 460.338Q783.47186 458.8849 783.20624 457.963Q782.9875 459.05676 782.59686 460.1505L781.33124 463.5099ZM795.4875 468.213L795.4875 467.16614Q794.70624 468.4005 793.175 468.4005Q792.175 468.4005 791.34686 467.85364Q790.51874 467.30676 790.05 466.3224Q789.59686 465.338 789.59686 464.0724Q789.59686 462.8224 790.0031 461.8224Q790.425 460.80676 791.2531 460.2755Q792.08124 459.72864 793.1125 459.72864Q793.8625 459.72864 794.4406 460.04114Q795.03436 460.35364 795.39374 460.86926L795.39374 456.7599L796.8 456.7599L796.8 468.213L795.4875 468.213ZM791.05 464.0724Q791.05 465.66614 791.72186 466.463Q792.39374 467.24426 793.3 467.24426Q794.22186 467.24426 794.8625 466.49426Q795.51874 465.72864 795.51874 464.18176Q795.51874 462.47864 794.8625 461.68176Q794.20624 460.8849 793.2375 460.8849Q792.3 460.8849 791.675 461.6505Q791.05 462.41614 791.05 464.0724ZM801.40936 468.213L798.2531 459.91614L799.7375 459.91614L801.51874 464.8849Q801.8156 465.68176 802.05 466.55676Q802.2375 465.9005 802.58124 464.97864L804.425 459.91614L805.8625 459.91614L802.72186 468.213L801.40936 468.213ZM806.1125 458.36926L806.1125 456.7599L807.51874 456.7599L807.51874 458.36926L806.1125 458.36926ZM806.1125 468.213L806.1125 459.91614L807.51874 459.91614L807.51874 468.213L806.1125 468.213ZM809.55 465.72864L810.9406 465.5099Q811.05 466.35364 811.58124 466.80676Q812.1281 467.24426 813.08124 467.24426Q814.05 467.24426 814.51874 466.85364Q814.9875 466.4474 814.9875 465.91614Q814.9875 465.4474 814.58124 465.16614Q814.28436 464.97864 813.14374 464.6974Q811.59686 464.30676 810.9875 464.0255Q810.39374 463.72864 810.08124 463.22864Q809.78436 462.72864 809.78436 462.11926Q809.78436 461.55676 810.03436 461.088Q810.28436 460.61926 810.72186 460.30676Q811.05 460.05676 811.6125 459.9005Q812.1906 459.72864 812.83124 459.72864Q813.8156 459.72864 814.55 460.0099Q815.28436 460.29114 815.6281 460.7755Q815.9875 461.24426 816.1281 462.05676L814.7531 462.24426Q814.65936 461.60364 814.20624 461.24426Q813.7531 460.8849 812.9406 460.8849Q811.97186 460.8849 811.55 461.213Q811.14374 461.5255 811.14374 461.9474Q811.14374 462.22864 811.3156 462.4474Q811.4875 462.66614 811.84686 462.8224Q812.0656 462.9005 813.09686 463.18176Q814.58124 463.5724 815.175 463.838Q815.76874 464.088 816.09686 464.5724Q816.4406 465.05676 816.4406 465.7755Q816.4406 466.47864 816.01874 467.10364Q815.6125 467.713 814.83124 468.05676Q814.0656 468.4005 813.09686 468.4005Q811.47186 468.4005 810.6281 467.72864Q809.78436 467.05676 809.55 465.72864ZM823.78436 465.54114L825.2375 465.713Q824.89374 466.99426 823.95624 467.6974Q823.03436 468.4005 821.59686 468.4005Q819.76874 468.4005 818.70624 467.2755Q817.64374 466.1505 817.64374 464.1349Q817.64374 462.04114 818.72186 460.8849Q819.8 459.72864 821.51874 459.72864Q823.175 459.72864 824.22186 460.86926Q825.28436 461.99426 825.28436 464.04114Q825.28436 464.16614 825.28436 464.41614L819.09686 464.41614Q819.175 465.79114 819.8625 466.5255Q820.5656 467.24426 821.59686 467.24426Q822.3781 467.24426 822.925 466.838Q823.47186 466.43176 823.78436 465.54114ZM819.175 463.2599L823.8 463.2599Q823.70624 462.213 823.26874 461.6974Q822.59686 460.8849 821.53436 460.8849Q820.5656 460.8849 819.89374 461.54114Q819.2375 462.18176 819.175 463.2599ZM827.09686 468.213L827.09686 459.91614L828.3625 459.91614L828.3625 461.16614Q828.84686 460.29114 829.2531 460.0099Q829.65936 459.72864 830.15936 459.72864Q830.8625 459.72864 831.59686 460.18176L831.1125 461.47864Q830.59686 461.18176 830.08124 461.18176Q829.6281 461.18176 829.2531 461.463Q828.89374 461.72864 828.7375 462.22864Q828.5031 462.97864 828.5031 463.86926L828.5031 468.213L827.09686 468.213ZM831.55 465.72864L832.9406 465.5099Q833.05 466.35364 833.58124 466.80676Q834.1281 467.24426 835.08124 467.24426Q836.05 467.24426 836.51874 466.85364Q836.9875 466.4474 836.9875 465.91614Q836.9875 465.4474 836.58124 465.16614Q836.28436 464.97864 835.14374 464.6974Q833.59686 464.30676 832.9875 464.0255Q832.39374 463.72864 832.08124 463.22864Q831.78436 462.72864 831.78436 462.11926Q831.78436 461.55676 832.03436 461.088Q832.28436 460.61926 832.72186 460.30676Q833.05 460.05676 833.6125 459.9005Q834.1906 459.72864 834.83124 459.72864Q835.8156 459.72864 836.55 460.0099Q837.28436 460.29114 837.6281 460.7755Q837.9875 461.24426 838.1281 462.05676L836.7531 462.24426Q836.65936 461.60364 836.20624 461.24426Q835.7531 460.8849 834.9406 460.8849Q833.97186 460.8849 833.55 461.213Q833.14374 461.5255 833.14374 461.9474Q833.14374 462.22864 833.3156 462.4474Q833.4875 462.66614 833.84686 462.8224Q834.0656 462.9005 835.09686 463.18176Q836.58124 463.5724 837.175 463.838Q837.76874 464.088 838.09686 464.5724Q838.4406 465.05676 838.4406 465.7755Q838.4406 466.47864 838.01874 467.10364Q837.6125 467.713 836.83124 468.05676Q836.0656 468.4005 835.09686 468.4005Q833.47186 468.4005 832.6281 467.72864Q831.78436 467.05676 831.55 465.72864Z" fill-rule="nonzero"/><path fill="#9e9e9e" d="M800.01874 490.213L798.6125 490.213L798.6125 481.24426Q798.09686 481.72864 797.26874 482.213Q796.45624 482.6974 795.8 482.9474L795.8 481.588Q796.97186 481.0255 797.84686 480.24426Q798.7375 479.4474 799.1125 478.713L800.01874 478.713L800.01874 490.213ZM803.72186 487.213L805.1906 487.088Q805.3625 488.16614 805.95624 488.713Q806.55 489.24426 807.39374 489.24426Q808.40936 489.24426 809.1125 488.47864Q809.8156 487.713 809.8156 486.4474Q809.8156 485.24426 809.14374 484.55676Q808.47186 483.85364 807.3781 483.85364Q806.6906 483.85364 806.14374 484.16614Q805.59686 484.47864 805.28436 484.963L803.97186 484.79114L805.08124 478.91614L810.76874 478.91614L810.76874 480.2599L806.20624 480.2599L805.58124 483.338Q806.6125 482.61926 807.7531 482.61926Q809.2531 482.61926 810.28436 483.66614Q811.3156 484.6974 811.3156 486.3224Q811.3156 487.8849 810.40936 489.0099Q809.3 490.41614 807.39374 490.41614Q805.83124 490.41614 804.84686 489.54114Q803.8625 488.6505 803.72186 487.213ZM813.5031 490.213L813.5031 488.60364L815.1125 488.60364L815.1125 490.213L813.5031 490.213ZM816.72186 484.55676Q816.72186 482.5255 817.1281 481.29114Q817.55 480.05676 818.3781 479.3849Q819.20624 478.713 820.45624 478.713Q821.3781 478.713 822.0656 479.088Q822.76874 479.4474 823.22186 480.1505Q823.675 480.85364 823.925 481.85364Q824.1906 482.85364 824.1906 484.55676Q824.1906 486.5724 823.76874 487.8224Q823.3625 489.05676 822.53436 489.74426Q821.70624 490.41614 820.45624 490.41614Q818.8 490.41614 817.84686 489.213Q816.72186 487.79114 816.72186 484.55676ZM818.15936 484.55676Q818.15936 487.3849 818.8156 488.3224Q819.4875 489.24426 820.45624 489.24426Q821.425 489.24426 822.08124 488.30676Q822.7375 487.36926 822.7375 484.55676Q822.7375 481.72864 822.08124 480.80676Q821.425 479.86926 820.4406 479.86926Q819.47186 479.86926 818.89374 480.6974Q818.15936 481.74426 818.15936 484.55676ZM825.9875 481.5099Q825.9875 480.2755 826.59686 479.41614Q827.22186 478.55676 828.39374 478.55676Q829.47186 478.55676 830.175 479.338Q830.8781 480.10364 830.8781 481.588Q830.8781 483.04114 830.15936 483.838Q829.45624 484.61926 828.40936 484.61926Q827.3625 484.61926 826.675 483.85364Q825.9875 483.0724 825.9875 481.5099ZM828.425 479.5255Q827.90936 479.5255 827.55 479.97864Q827.20624 480.43176 827.20624 481.6505Q827.20624 482.74426 827.55 483.1974Q827.90936 483.6505 828.425 483.6505Q828.95624 483.6505 829.3 483.1974Q829.65936 482.74426 829.65936 481.54114Q829.65936 480.43176 829.3 479.97864Q828.95624 479.5255 828.425 479.5255ZM828.4406 490.6349L834.70624 478.55676L835.84686 478.55676L829.59686 490.6349L828.4406 490.6349ZM833.39374 487.5255Q833.39374 486.29114 834.0031 485.43176Q834.6281 484.5724 835.8 484.5724Q836.8781 484.5724 837.58124 485.35364Q838.3 486.11926 838.3 487.60364Q838.3 489.05676 837.58124 489.85364Q836.8625 490.6349 835.8156 490.6349Q834.76874 490.6349 834.08124 489.85364Q833.39374 489.0724 833.39374 487.5255ZM835.84686 485.54114Q835.3156 485.54114 834.95624 485.99426Q834.6125 486.4474 834.6125 487.66614Q834.6125 488.7599 834.95624 489.213Q835.3156 489.66614 835.83124 489.66614Q836.3781 489.66614 836.72186 489.213Q837.0656 488.7599 837.0656 487.55676Q837.0656 486.4474 836.70624 485.99426Q836.3625 485.54114 835.84686 485.54114Z" fill-rule="nonzero"/><path stroke="#757575" stroke-width="1.0" stroke-linecap="butt" d="M839.05 473.713L681.55 473.713L539.7313 473.713" fill-rule="nonzero"/><path fill="#9e9e9e" d="M541.7313 473.713C541.7313 472.60843 540.83594 471.713 539.7313 471.713C538.6268 471.713 537.7313 472.60843 537.7313 473.713C537.7313 474.81757 538.6268 475.713 539.7313 475.713C540.83594 475.713 541.7313 474.81757 541.7313 473.713" fill-rule="nonzero"/></svg>